<svg version="1.1" viewBox="0.0 0.0 600.0 371.0" fill="none" stroke="none" stroke-linecap="square" stroke-miterlimit="10" width="600" height="371" xmlns:xlink="http://www.w3.org/1999/xlink" xmlns="http://www.w3.org/2000/svg"><path fill="#ffffff" d="M0 0L600.0 0L600.0 371.0L0 371.0L0 0Z" fill-rule="nonzero"/><path stroke="#cccccc" stroke-width="1.0" stroke-linecap="butt" d="M183.5 88.5L183.5 300.5" fill-rule="nonzero"/><path stroke="#cccccc" stroke-width="1.0" stroke-linecap="butt" d="M316.5 88.5L316.5 300.5" fill-rule="nonzero"/><path stroke="#cccccc" stroke-width="1.0" stroke-linecap="butt" d="M448.5 88.5L448.5 300.5" fill-rule="nonzero"/><path stroke="#cccccc" stroke-width="1.0" stroke-linecap="butt" d="M581.5 88.5L581.5 300.5" fill-rule="nonzero"/><path stroke="#333333" stroke-width="1.0" stroke-linecap="butt" d="M77.5 300.5L581.5 300.5" fill-rule="nonzero"/><path stroke="#cccccc" stroke-width="1.0" stroke-linecap="butt" d="M77.5 258.5L581.5 258.5" fill-rule="nonzero"/><path stroke="#cccccc" stroke-width="1.0" stroke-linecap="butt" d="M77.5 215.5L581.5 215.5" fill-rule="nonzero"/><path stroke="#cccccc" stroke-width="1.0" stroke-linecap="butt" d="M77.5 173.5L581.5 173.5" fill-rule="nonzero"/><path stroke="#cccccc" stroke-width="1.0" stroke-linecap="butt" d="M77.5 130.5L581.5 130.5" fill-rule="nonzero"/><path stroke="#cccccc" stroke-width="1.0" stroke-linecap="butt" d="M77.5 88.5L581.5 88.5" fill-rule="nonzero"/><clipPath id="id_0"><path d="M77.55 88.28333L581.45 88.28333L581.45 300.45L77.55 300.45L77.55 88.28333Z" clip-rule="nonzero"/></clipPath><path fill="#4285f4" fill-opacity="0.3019608" clip-path="url(#id_0)" d="M77.55 110.34866C77.55 110.34866 148.27281 162.85284 183.63422 178.242C218.99562 193.63115 272.03772 203.48984 316.23947 208.794C360.44122 214.09816 581.45 211.34 581.45 211.34L581.45 300.45C581.45 300.45 360.44122 300.45 316.23947 300.45C272.03772 300.45 218.99562 300.45 183.63422 300.45C148.27281 300.45 77.55 300.45 77.55 300.45Z" fill-rule="nonzero"/><path stroke="#4285f4" stroke-width="2.0" stroke-linecap="butt" clip-path="url(#id_0)" d="M77.55 110.34866C77.55 110.34866 148.27281 162.85284 183.63422 178.242C218.99562 193.63115 272.03772 203.48984 316.23947 208.794C360.44122 214.09816 581.45 211.34 581.45 211.34" fill-rule="nonzero"/><path stroke="#4285f4" stroke-width="2.0" stroke-linecap="butt" stroke-opacity="0.4" clip-path="url(#id_0)" d="M0 126.46652L581.45 228.24821" fill-rule="nonzero"/><path fill="#000000" fill-opacity="0.0" clip-path="url(#id_0)" d="M80.55 110.34866C80.55 112.00552 79.206856 113.34866 77.55 113.34866C75.89314 113.34866 74.55 112.00552 74.55 110.34866C74.55 108.69181 75.89314 107.34866 77.55 107.34866C79.206856 107.34866 80.55 108.69181 80.55 110.34866Z" fill-rule="nonzero"/><path fill="#000000" fill-opacity="0.0" clip-path="url(#id_0)" d="M186.63422 178.242C186.63422 179.89885 185.29106 181.242 183.63422 181.242C181.97736 181.242 180.63422 179.89885 180.63422 178.242C180.63422 176.58514 181.97736 175.242 183.63422 175.242C185.29106 175.242 186.63422 176.58514 186.63422 178.242Z" fill-rule="nonzero"/><path fill="#000000" fill-opacity="0.0" clip-path="url(#id_0)" d="M319.23947 208.794C319.23947 210.45085 317.89633 211.794 316.23947 211.794C314.5826 211.794 313.23947 210.45085 313.23947 208.794C313.23947 207.13715 314.5826 205.794 316.23947 205.794C317.89633 205.794 319.23947 207.13715 319.23947 208.794Z" fill-rule="nonzero"/><path fill="#000000" fill-opacity="0.0" clip-path="url(#id_0)" d="M584.45 211.34C584.45 212.99686 583.1069 214.34 581.45 214.34C579.79315 214.34 578.45 212.99686 578.45 211.34C578.45 209.68315 579.79315 208.34 581.45 208.34C583.1069 208.34 584.45 209.68315 584.45 211.34Z" fill-rule="nonzero"/><path fill="#000000" d="M286.79688 342.075L286.79688 340.85626L287.85938 340.85626L287.85938 342.075L286.79688 342.075ZM286.79688 349.45L286.79688 343.23126L287.85938 343.23126L287.85938 349.45L286.79688 349.45ZM292.09375 348.5125L292.25 349.4344Q291.79688 349.52814 291.45312 349.52814Q290.875 349.52814 290.5625 349.35626Q290.25 349.16876 290.10938 348.8719Q289.98438 348.575 289.98438 347.6219L289.98438 344.04376L289.21875 344.04376L289.21875 343.23126L289.98438 343.23126L289.98438 341.6844L291.03125 341.0594L291.03125 343.23126L292.09375 343.23126L292.09375 344.04376L291.03125 344.04376L291.03125 347.6844Q291.03125 348.1375 291.07812 348.2625Q291.14062 348.3875 291.26562 348.46564Q291.39062 348.54376 291.625 348.54376Q291.8125 348.54376 292.09375 348.5125ZM297.04688 347.45L298.14062 347.575Q297.89062 348.52814 297.1875 349.0594Q296.48438 349.59064 295.40625 349.59064Q294.04688 349.59064 293.23438 348.7469Q292.4375 347.90314 292.4375 346.3875Q292.4375 344.825 293.25 343.96564Q294.0625 343.09064 295.34375 343.09064Q296.59375 343.09064 297.375 343.9344Q298.17188 344.77814 298.17188 346.325Q298.17188 346.41876 298.17188 346.60626L293.53125 346.60626Q293.59375 347.6375 294.10938 348.1844Q294.625 348.71564 295.40625 348.71564Q295.98438 348.71564 296.39062 348.41876Q296.8125 348.10626 297.04688 347.45ZM293.59375 345.7469L297.0625 345.7469Q297.0 344.95 296.67188 344.5594Q296.15625 343.95 295.35938 343.95Q294.625 343.95 294.125 344.4344Q293.64062 344.91876 293.59375 345.7469ZM299.79688 349.45L299.79688 343.23126L300.73438 343.23126L300.73438 344.10626Q301.03125 343.6375 301.51562 343.3719Q302.0 343.09064 302.625 343.09064Q303.3125 343.09064 303.75 343.3719Q304.20312 343.65314 304.375 344.16876Q305.125 343.09064 306.29688 343.09064Q307.23438 343.09064 307.71875 343.60626Q308.21875 344.10626 308.21875 345.1844L308.21875 349.45L307.17188 349.45L307.17188 345.52814Q307.17188 344.90314 307.0625 344.6219Q306.96875 344.34064 306.70312 344.16876Q306.4375 343.9969 306.0625 343.9969Q305.40625 343.9969 304.96875 344.4344Q304.54688 344.8719 304.54688 345.84064L304.54688 349.45L303.48438 349.45L303.48438 345.40314Q303.48438 344.7 303.21875 344.35626Q302.96875 343.9969 302.39062 343.9969Q301.9375 343.9969 301.5625 344.23126Q301.1875 344.46564 301.01562 344.91876Q300.84375 345.3719 300.84375 346.21564L300.84375 349.45L299.79688 349.45ZM310.375 347.59064L311.40625 347.4344Q311.5 348.0594 311.89062 348.3875Q312.29688 348.71564 313.03125 348.71564Q313.75 348.71564 314.09375 348.4344Q314.45312 348.1375 314.45312 347.73126Q314.45312 347.3719 314.14062 347.16876Q313.92188 347.02814 313.0625 346.8094Q311.90625 346.5125 311.45312 346.3094Q311.01562 346.09064 310.78125 345.71564Q310.54688 345.34064 310.54688 344.8719Q310.54688 344.46564 310.73438 344.10626Q310.92188 343.7469 311.25 343.5125Q311.5 343.34064 311.92188 343.21564Q312.34375 343.09064 312.84375 343.09064Q313.5625 343.09064 314.10938 343.3094Q314.67188 343.5125 314.9375 343.8719Q315.20312 344.23126 315.29688 344.825L314.26562 344.96564Q314.20312 344.4969 313.85938 344.23126Q313.53125 343.95 312.90625 343.95Q312.1875 343.95 311.875 344.2Q311.5625 344.4344 311.5625 344.7625Q311.5625 344.96564 311.6875 345.1219Q311.82812 345.29376 312.09375 345.40314Q312.25 345.46564 313.03125 345.66876Q314.15625 345.98126 314.59375 346.16876Q315.03125 346.35626 315.28125 346.71564Q315.53125 347.075 315.53125 347.6219Q315.53125 348.15314 315.21875 348.6219Q314.92188 349.075 314.34375 349.34064Q313.76562 349.59064 313.03125 349.59064Q311.8125 349.59064 311.17188 349.09064Q310.54688 348.575 310.375 347.59064ZM320.10938 349.45L320.10938 341.8719L317.28125 341.8719L317.28125 340.85626L324.09375 340.85626L324.09375 341.8719L321.25 341.8719L321.25 349.45L320.10938 349.45ZM324.79688 349.45L324.79688 340.85626L325.84375 340.85626L325.84375 343.9344Q326.57812 343.09064 327.70312 343.09064Q328.40625 343.09064 328.90625 343.3719Q329.42188 343.6375 329.64062 344.1219Q329.85938 344.59064 329.85938 345.5125L329.85938 349.45L328.8125 349.45L328.8125 345.5125Q328.8125 344.71564 328.46875 344.35626Q328.125 343.9969 327.5 343.9969Q327.03125 343.9969 326.60938 344.2469Q326.20312 344.48126 326.01562 344.90314Q325.84375 345.3094 325.84375 346.04376L325.84375 349.45L324.79688 349.45ZM331.78125 349.45L331.78125 343.23126L332.73438 343.23126L332.73438 344.16876Q333.09375 343.5125 333.39062 343.3094Q333.70312 343.09064 334.07812 343.09064Q334.60938 343.09064 335.15625 343.41876L334.79688 344.40314Q334.40625 344.16876 334.03125 344.16876Q333.67188 344.16876 333.39062 344.3875Q333.125 344.59064 333.01562 344.96564Q332.82812 345.52814 332.82812 346.1844L332.82812 349.45L331.78125 349.45ZM340.04688 347.45L341.14062 347.575Q340.89062 348.52814 340.1875 349.0594Q339.48438 349.59064 338.40625 349.59064Q337.04688 349.59064 336.23438 348.7469Q335.4375 347.90314 335.4375 346.3875Q335.4375 344.825 336.25 343.96564Q337.0625 343.09064 338.34375 343.09064Q339.59375 343.09064 340.375 343.9344Q341.17188 344.77814 341.17188 346.325Q341.17188 346.41876 341.17188 346.60626L336.53125 346.60626Q336.59375 347.6375 337.10938 348.1844Q337.625 348.71564 338.40625 348.71564Q338.98438 348.71564 339.39062 348.41876Q339.8125 348.10626 340.04688 347.45ZM336.59375 345.7469L340.0625 345.7469Q340.0 344.95 339.67188 344.5594Q339.15625 343.95 338.35938 343.95Q337.625 343.95 337.125 344.4344Q336.64062 344.91876 336.59375 345.7469ZM342.375 347.59064L343.40625 347.4344Q343.5 348.0594 343.89062 348.3875Q344.29688 348.71564 345.03125 348.71564Q345.75 348.71564 346.09375 348.4344Q346.45312 348.1375 346.45312 347.73126Q346.45312 347.3719 346.14062 347.16876Q345.92188 347.02814 345.0625 346.8094Q343.90625 346.5125 343.45312 346.3094Q343.01562 346.09064 342.78125 345.71564Q342.54688 345.34064 342.54688 344.8719Q342.54688 344.46564 342.73438 344.10626Q342.92188 343.7469 343.25 343.5125Q343.5 343.34064 343.92188 343.21564Q344.34375 343.09064 344.84375 343.09064Q345.5625 343.09064 346.10938 343.3094Q346.67188 343.5125 346.9375 343.8719Q347.20312 344.23126 347.29688 344.825L346.26562 344.96564Q346.20312 344.4969 345.85938 344.23126Q345.53125 343.95 344.90625 343.95Q344.1875 343.95 343.875 344.2Q343.5625 344.4344 343.5625 344.7625Q343.5625 344.96564 343.6875 345.1219Q343.82812 345.29376 344.09375 345.40314Q344.25 345.46564 345.03125 345.66876Q346.15625 345.98126 346.59375 346.16876Q347.03125 346.35626 347.28125 346.71564Q347.53125 347.075 347.53125 347.6219Q347.53125 348.15314 347.21875 348.6219Q346.92188 349.075 346.34375 349.34064Q345.76562 349.59064 345.03125 349.59064Q343.8125 349.59064 343.17188 349.09064Q342.54688 348.575 342.375 347.59064ZM349.79688 349.45L349.79688 340.85626L350.84375 340.85626L350.84375 343.9344Q351.57812 343.09064 352.70312 343.09064Q353.40625 343.09064 353.90625 343.3719Q354.42188 343.6375 354.64062 344.1219Q354.85938 344.59064 354.85938 345.5125L354.85938 349.45L353.8125 349.45L353.8125 345.5125Q353.8125 344.71564 353.46875 344.35626Q353.125 343.9969 352.5 343.9969Q352.03125 343.9969 351.60938 344.2469Q351.20312 344.48126 351.01562 344.90314Q350.84375 345.3094 350.84375 346.04376L350.84375 349.45L349.79688 349.45ZM356.40625 346.34064Q356.40625 344.60626 357.35938 343.77814Q358.15625 343.09064 359.3125 343.09064Q360.59375 343.09064 361.40625 343.9344Q362.23438 344.7625 362.23438 346.2469Q362.23438 347.45 361.875 348.1375Q361.51562 348.825 360.8125 349.21564Q360.125 349.59064 359.3125 349.59064Q358.01562 349.59064 357.20312 348.7625Q356.40625 347.91876 356.40625 346.34064ZM357.48438 346.34064Q357.48438 347.52814 358.0 348.1219Q358.53125 348.71564 359.3125 348.71564Q360.10938 348.71564 360.625 348.1219Q361.14062 347.52814 361.14062 346.3094Q361.14062 345.15314 360.60938 344.5594Q360.09375 343.96564 359.3125 343.96564Q358.53125 343.96564 358.0 344.5594Q357.48438 345.1375 357.48438 346.34064ZM363.76562 349.45L363.76562 340.85626L364.82812 340.85626L364.82812 349.45L363.76562 349.45ZM370.82812 349.45L370.82812 348.66876Q370.23438 349.59064 369.09375 349.59064Q368.34375 349.59064 367.71875 349.1844Q367.09375 348.7625 366.75 348.02814Q366.40625 347.29376 366.40625 346.34064Q366.40625 345.41876 366.71875 344.65314Q367.03125 343.8875 367.65625 343.4969Q368.28125 343.09064 369.04688 343.09064Q369.60938 343.09064 370.04688 343.325Q370.48438 343.5594 370.76562 343.9344L370.76562 340.85626L371.8125 340.85626L371.8125 349.45L370.82812 349.45ZM367.5 346.34064Q367.5 347.54376 368.0 348.1375Q368.5 348.71564 369.1875 348.71564Q369.875 348.71564 370.35938 348.15314Q370.84375 347.59064 370.84375 346.4344Q370.84375 345.15314 370.34375 344.5594Q369.85938 343.96564 369.14062 343.96564Q368.4375 343.96564 367.96875 344.54376Q367.5 345.10626 367.5 346.34064Z" fill-rule="nonzero"/><path fill="#000000" d="M29.550013 234.2573L21.971888 234.2573L21.971888 237.08542L20.956263 237.08542L20.956263 230.27292L21.971888 230.27292L21.971888 233.11667L29.550013 233.11667L29.550013 234.2573ZM22.175013 229.5698L20.956263 229.5698L20.956263 228.5073L22.175013 228.5073L22.175013 229.5698ZM29.550013 229.5698L23.331263 229.5698L23.331263 228.5073L29.550013 228.5073L29.550013 229.5698ZM29.550013 226.5698L23.331263 226.5698L23.331263 225.6323L24.206263 225.6323Q23.737513 225.33542 23.471888 224.85104Q23.190638 224.36667 23.190638 223.74167Q23.190638 223.05417 23.471888 222.61667Q23.753138 222.16354 24.268763 221.99167Q23.190638 221.24167 23.190638 220.0698Q23.190638 219.1323 23.706263 218.64792Q24.206263 218.14792 25.284388 218.14792L29.550013 218.14792L29.550013 219.1948L25.628138 219.1948Q25.003138 219.1948 24.721888 219.30417Q24.440638 219.39792 24.268763 219.66354Q24.096888 219.92917 24.096888 220.30417Q24.096888 220.96042 24.534388 221.39792Q24.971888 221.8198 25.940638 221.8198L29.550013 221.8198L29.550013 222.8823L25.503138 222.8823Q24.800013 222.8823 24.456263 223.14792Q24.096888 223.39792 24.096888 223.97604Q24.096888 224.42917 24.331263 224.80417Q24.565638 225.17917 25.018763 225.35104Q25.471888 225.52292 26.315638 225.52292L29.550013 225.52292L29.550013 226.5698ZM27.550013 211.3198L27.675013 210.22604Q28.628138 210.47604 29.159388 211.17917Q29.690638 211.8823 29.690638 212.96042Q29.690638 214.3198 28.846888 215.1323Q28.003138 215.92917 26.487513 215.92917Q24.925013 215.92917 24.065638 215.11667Q23.190638 214.30417 23.190638 213.02292Q23.190638 211.77292 24.034388 210.99167Q24.878138 210.1948 26.425013 210.1948Q26.518763 210.1948 26.706263 210.1948L26.706263 214.83542Q27.737513 214.77292 28.284388 214.2573Q28.815638 213.74167 28.815638 212.96042Q28.815638 212.3823 28.518763 211.97604Q28.206263 211.55417 27.550013 211.3198ZM25.846888 214.77292L25.846888 211.30417Q25.050013 211.36667 24.659388 211.6948Q24.050013 212.21042 24.050013 213.0073Q24.050013 213.74167 24.534388 214.24167Q25.018763 214.72604 25.846888 214.77292ZM28.612513 203.27292L29.534388 203.11667Q29.628138 203.5698 29.628138 203.91354Q29.628138 204.49167 29.456263 204.80417Q29.268763 205.11667 28.971888 205.2573Q28.675013 205.3823 27.721888 205.3823L24.143763 205.3823L24.143763 206.14792L23.331263 206.14792L23.331263 205.3823L21.784388 205.3823L21.159388 204.33542L23.331263 204.33542L23.331263 203.27292L24.143763 203.27292L24.143763 204.33542L27.784388 204.33542Q28.237513 204.33542 28.362513 204.28854Q28.487513 204.22604 28.565638 204.10104Q28.643763 203.97604 28.643763 203.74167Q28.643763 203.55417 28.612513 203.27292ZM26.440638 202.96042Q24.706263 202.96042 23.878138 202.0073Q23.190638 201.21042 23.190638 200.05417Q23.190638 198.77292 24.034388 197.96042Q24.862513 197.1323 26.346888 197.1323Q27.550013 197.1323 28.237513 197.49167Q28.925013 197.85104 29.315638 198.55417Q29.690638 199.24167 29.690638 200.05417Q29.690638 201.35104 28.862513 202.16354Q28.018763 202.96042 26.440638 202.96042ZM26.440638 201.8823Q27.628138 201.8823 28.221888 201.36667Q28.815638 200.83542 28.815638 200.05417Q28.815638 199.2573 28.221888 198.74167Q27.628138 198.22604 26.409388 198.22604Q25.253138 198.22604 24.659388 198.7573Q24.065638 199.27292 24.065638 200.05417Q24.065638 200.83542 24.659388 201.36667Q25.237513 201.8823 26.440638 201.8823ZM22.175013 192.5698L20.956263 192.5698L20.956263 191.5073L22.175013 191.5073L22.175013 192.5698ZM29.550013 192.5698L23.331263 192.5698L23.331263 191.5073L29.550013 191.5073L29.550013 192.5698ZM29.550013 189.5698L23.331263 189.5698L23.331263 188.6323L24.206263 188.6323Q23.190638 187.9448 23.190638 186.64792Q23.190638 186.08542 23.393763 185.61667Q23.596888 185.1323 23.925013 184.89792Q24.253138 184.66354 24.690638 184.5698Q24.987513 184.52292 25.721888 184.52292L29.550013 184.52292L29.550013 185.5698L25.768763 185.5698Q25.112513 185.5698 24.800013 185.6948Q24.487513 185.8198 24.300013 186.1323Q24.096888 186.4448 24.096888 186.86667Q24.096888 187.53854 24.534388 188.03854Q24.956263 188.52292 26.143763 188.52292L29.550013 188.52292L29.550013 189.5698ZM29.550013 178.53854L28.768763 178.53854Q29.690638 179.1323 29.690638 180.27292Q29.690638 181.02292 29.284388 181.64792Q28.862513 182.27292 28.128138 182.61667Q27.393763 182.96042 26.440638 182.96042Q25.518763 182.96042 24.753138 182.64792Q23.987513 182.33542 23.596888 181.71042Q23.190638 181.08542 23.190638 180.3198Q23.190638 179.7573 23.425013 179.3198Q23.659388 178.8823 24.034388 178.60104L20.956263 178.60104L20.956263 177.55417L29.550013 177.55417L29.550013 178.53854ZM26.440638 181.86667Q27.643763 181.86667 28.237513 181.36667Q28.815638 180.86667 28.815638 180.17917Q28.815638 179.49167 28.253138 179.0073Q27.690638 178.52292 26.534388 178.52292Q25.253138 178.52292 24.659388 179.02292Q24.065638 179.5073 24.065638 180.22604Q24.065638 180.92917 24.643763 181.39792Q25.206263 181.86667 26.440638 181.86667ZM27.550013 171.3198L27.675013 170.22604Q28.628138 170.47604 29.159388 171.17917Q29.690638 171.8823 29.690638 172.96042Q29.690638 174.3198 28.846888 175.1323Q28.003138 175.92917 26.487513 175.92917Q24.925013 175.92917 24.065638 175.11667Q23.190638 174.30417 23.190638 173.02292Q23.190638 171.77292 24.034388 170.99167Q24.878138 170.1948 26.425013 170.1948Q26.518763 170.1948 26.706263 170.1948L26.706263 174.83542Q27.737513 174.77292 28.284388 174.2573Q28.815638 173.74167 28.815638 172.96042Q28.815638 172.3823 28.518763 171.97604Q28.206263 171.55417 27.550013 171.3198ZM25.846888 174.77292L25.846888 171.30417Q25.050013 171.36667 24.659388 171.6948Q24.050013 172.21042 24.050013 173.0073Q24.050013 173.74167 24.534388 174.24167Q25.018763 174.72604 25.846888 174.77292ZM29.550013 169.27292L26.315638 167.0073L23.331263 169.10104L23.331263 167.78854L24.784388 166.83542Q25.206263 166.5698 25.487513 166.39792Q25.096888 166.14792 24.800013 165.92917L23.331263 164.8823L23.331263 163.61667L26.253138 165.77292L29.550013 163.46042L29.550013 164.74167L27.612513 166.02292L27.096888 166.36667L29.550013 168.0073L29.550013 169.27292Z" fill-rule="nonzero"/><path fill="#000000" d="M65.05 300.21564Q65.05 298.6844 65.3625 297.7625Q65.675 296.825 66.28438 296.325Q66.90938 295.825 67.84688 295.825Q68.53438 295.825 69.05 296.10626Q69.58125 296.3875 69.925 296.91876Q70.26875 297.4344 70.45625 298.1844Q70.64375 298.9344 70.64375 300.21564Q70.64375 301.73126 70.33125 302.65314Q70.03438 303.575 69.40938 304.09064Q68.8 304.59064 67.84688 304.59064Q66.6125 304.59064 65.89375 303.7Q65.05 302.6375 65.05 300.21564ZM66.12813 300.21564Q66.12813 302.325 66.62813 303.02814Q67.12813 303.73126 67.84688 303.73126Q68.58125 303.73126 69.06563 303.02814Q69.56563 302.325 69.56563 300.21564Q69.56563 298.09064 69.06563 297.40314Q68.58125 296.7 67.83125 296.7Q67.1125 296.7 66.675 297.3094Q66.12813 298.09064 66.12813 300.21564Z" fill-rule="nonzero"/><path fill="#000000" d="M62.01875 262.01666L60.971874 262.01666L60.971874 255.29791Q60.58125 255.65729 59.95625 256.0323Q59.346874 256.39166 58.8625 256.56354L58.8625 255.54791Q59.7375 255.12604 60.39375 254.54791Q61.065624 253.95416 61.346874 253.39166L62.01875 253.39166L62.01875 262.01666ZM65.05 257.7823Q65.05 256.25104 65.3625 255.32916Q65.675 254.39166 66.28438 253.89166Q66.90938 253.39166 67.84688 253.39166Q68.53438 253.39166 69.05 253.67291Q69.58125 253.95416 69.925 254.48541Q70.26875 255.00104 70.45625 255.75104Q70.64375 256.50104 70.64375 257.7823Q70.64375 259.2979 70.33125 260.2198Q70.03438 261.14166 69.40938 261.6573Q68.8 262.1573 67.84688 262.1573Q66.6125 262.1573 65.89375 261.26666Q65.05 260.20416 65.05 257.7823ZM66.12813 257.7823Q66.12813 259.89166 66.62813 260.5948Q67.12813 261.2979 67.84688 261.2979Q68.58125 261.2979 69.06563 260.5948Q69.56563 259.89166 69.56563 257.7823Q69.56563 255.65729 69.06563 254.96979Q68.58125 254.26666 67.83125 254.26666Q67.1125 254.26666 66.675 254.87604Q66.12813 255.65729 66.12813 257.7823Z" fill-rule="nonzero"/><path fill="#000000" d="M63.596874 218.5677L63.596874 219.58333L57.909374 219.58333Q57.909374 219.20833 58.034374 218.84895Q58.253124 218.27083 58.721874 217.70833Q59.20625 217.14583 60.1125 216.41145Q61.51875 215.2552 62.003124 214.58333Q62.503124 213.91145 62.503124 213.3177Q62.503124 212.6927 62.05 212.27083Q61.596874 211.83333 60.878124 211.83333Q60.1125 211.83333 59.659374 212.28645Q59.20625 212.73958 59.190624 213.55208L58.1125 213.4427Q58.221874 212.22395 58.940624 211.59895Q59.675 210.95833 60.909374 210.95833Q62.14375 210.95833 62.8625 211.64583Q63.58125 212.33333 63.58125 213.34895Q63.58125 213.86458 63.3625 214.36458Q63.159374 214.84895 62.659374 215.41145Q62.175 215.95833 61.05 216.91145Q60.096874 217.70833 59.815624 218.0052Q59.55 218.28645 59.378124 218.5677L63.596874 218.5677ZM65.05 215.34895Q65.05 213.8177 65.3625 212.89583Q65.675 211.95833 66.28438 211.45833Q66.90938 210.95833 67.84688 210.95833Q68.53438 210.95833 69.05 211.23958Q69.58125 211.52083 69.925 212.05208Q70.26875 212.5677 70.45625 213.3177Q70.64375 214.0677 70.64375 215.34895Q70.64375 216.86458 70.33125 217.78645Q70.03438 218.70833 69.40938 219.22395Q68.8 219.72395 67.84688 219.72395Q66.6125 219.72395 65.89375 218.83333Q65.05 217.77083 65.05 215.34895ZM66.12813 215.34895Q66.12813 217.45833 66.62813 218.16145Q67.12813 218.86458 67.84688 218.86458Q68.58125 218.86458 69.06563 218.16145Q69.56563 217.45833 69.56563 215.34895Q69.56563 213.22395 69.06563 212.53645Q68.58125 211.83333 67.83125 211.83333Q67.1125 211.83333 66.675 212.4427Q66.12813 213.22395 66.12813 215.34895Z" fill-rule="nonzero"/><path fill="#000000" d="M58.05 174.88437L59.1125 174.74374Q59.284374 175.63437 59.721874 176.04062Q60.159374 176.43124 60.784374 176.43124Q61.534374 176.43124 62.05 175.91562Q62.565624 175.4 62.565624 174.63437Q62.565624 173.91562 62.08125 173.44687Q61.6125 172.9625 60.878124 172.9625Q60.58125 172.9625 60.128124 173.0875L60.253124 172.15Q60.3625 172.16562 60.425 172.16562Q61.096874 172.16562 61.628124 171.82187Q62.175 171.4625 62.175 170.72812Q62.175 170.15 61.784374 169.775Q61.39375 169.38437 60.76875 169.38437Q60.159374 169.38437 59.7375 169.775Q59.33125 170.16562 59.221874 170.93124L58.159374 170.74374Q58.346874 169.69687 59.034374 169.11874Q59.721874 168.525 60.7375 168.525Q61.440624 168.525 62.034374 168.8375Q62.628124 169.13437 62.940624 169.65Q63.253124 170.16562 63.253124 170.75937Q63.253124 171.30624 62.95625 171.775Q62.659374 172.22812 62.08125 172.49374Q62.83125 172.66562 63.253124 173.22812Q63.675 173.775 63.675 174.61874Q63.675 175.74374 62.846874 176.525Q62.034374 177.30624 60.784374 177.30624Q59.659374 177.30624 58.909374 176.63437Q58.159374 175.94687 58.05 174.88437ZM65.05 172.91562Q65.05 171.38437 65.3625 170.4625Q65.675 169.525 66.28438 169.025Q66.90938 168.525 67.84688 168.525Q68.53438 168.525 69.05 168.80624Q69.58125 169.0875 69.925 169.61874Q70.26875 170.13437 70.45625 170.88437Q70.64375 171.63437 70.64375 172.91562Q70.64375 174.43124 70.33125 175.35312Q70.03438 176.275 69.40938 176.79062Q68.8 177.29062 67.84688 177.29062Q66.6125 177.29062 65.89375 176.4Q65.05 175.3375 65.05 172.91562ZM66.12813 172.91562Q66.12813 175.025 66.62813 175.72812Q67.12813 176.43124 67.84688 176.43124Q68.58125 176.43124 69.06563 175.72812Q69.56563 175.025 69.56563 172.91562Q69.56563 170.79062 69.06563 170.10312Q68.58125 169.4 67.83125 169.4Q67.1125 169.4 66.675 170.00937Q66.12813 170.79062 66.12813 172.91562Z" fill-rule="nonzero"/><path fill="#000000" d="M61.425 134.71666L61.425 132.65416L57.70625 132.65416L57.70625 131.68541L61.628124 126.12291L62.4875 126.12291L62.4875 131.68541L63.64375 131.68541L63.64375 132.65416L62.4875 132.65416L62.4875 134.71666L61.425 134.71666ZM61.425 131.68541L61.425 127.826035L58.7375 131.68541L61.425 131.68541ZM65.05 130.48228Q65.05 128.95103 65.3625 128.02916Q65.675 127.09166 66.28438 126.59166Q66.90938 126.09166 67.84688 126.09166Q68.53438 126.09166 69.05 126.37291Q69.58125 126.65416 69.925 127.18541Q70.26875 127.701035 70.45625 128.45103Q70.64375 129.20103 70.64375 130.48228Q70.64375 131.99791 70.33125 132.91978Q70.03438 133.84166 69.40938 134.35728Q68.8 134.85728 67.84688 134.85728Q66.6125 134.85728 65.89375 133.96666Q65.05 132.90416 65.05 130.48228ZM66.12813 130.48228Q66.12813 132.59166 66.62813 133.29478Q67.12813 133.99791 67.84688 133.99791Q68.58125 133.99791 69.06563 133.29478Q69.56563 132.59166 69.56563 130.48228Q69.56563 128.35728 69.06563 127.669785Q68.58125 126.96666 67.83125 126.96666Q67.1125 126.96666 66.675 127.576035Q66.12813 128.35728 66.12813 130.48228Z" fill-rule="nonzero"/><path fill="#000000" d="M58.05 90.03333L59.159374 89.93958Q59.284374 90.75208 59.721874 91.15833Q60.175 91.56458 60.815624 91.56458Q61.565624 91.56458 62.096874 90.98646Q62.628124 90.40833 62.628124 89.47083Q62.628124 88.56458 62.1125 88.04896Q61.6125 87.51771 60.784374 87.51771Q60.284374 87.51771 59.8625 87.75208Q59.45625 87.98646 59.221874 88.34583L58.2375 88.22083L59.065624 83.81458L63.346874 83.81458L63.346874 84.81458L59.909374 84.81458L59.45625 87.12708Q60.221874 86.58021 61.065624 86.58021Q62.190624 86.58021 62.95625 87.36146Q63.7375 88.14271 63.7375 89.37708Q63.7375 90.53333 63.065624 91.39271Q62.2375 92.42396 60.815624 92.42396Q59.64375 92.42396 58.89375 91.76771Q58.159374 91.11146 58.05 90.03333ZM65.05 88.04896Q65.05 86.51771 65.3625 85.59583Q65.675 84.65833 66.28438 84.15833Q66.90938 83.65833 67.84688 83.65833Q68.53438 83.65833 69.05 83.93958Q69.58125 84.22083 69.925 84.75208Q70.26875 85.26771 70.45625 86.01771Q70.64375 86.76771 70.64375 88.04896Q70.64375 89.56458 70.33125 90.48646Q70.03438 91.40833 69.40938 91.92396Q68.8 92.42396 67.84688 92.42396Q66.6125 92.42396 65.89375 91.53333Q65.05 90.47083 65.05 88.04896ZM66.12813 88.04896Q66.12813 90.15833 66.62813 90.86146Q67.12813 91.56458 67.84688 91.56458Q68.58125 91.56458 69.06563 90.86146Q69.56563 90.15833 69.56563 88.04896Q69.56563 85.92396 69.06563 85.23646Q68.58125 84.53333 67.83125 84.53333Q67.1125 84.53333 66.675 85.14271Q66.12813 85.92396 66.12813 88.04896Z" fill-rule="nonzero"/><path fill="#000000" d="M170.13422 315.2L171.24359 315.10626Q171.36859 315.91876 171.80609 316.325Q172.25922 316.73126 172.89984 316.73126Q173.64984 316.73126 174.18109 316.15314Q174.71234 315.575 174.71234 314.6375Q174.71234 313.73126 174.19672 313.21564Q173.69672 312.6844 172.86859 312.6844Q172.36859 312.6844 171.94672 312.91876Q171.54047 313.15314 171.30609 313.5125L170.32172 313.3875L171.14984 308.98126L175.43109 308.98126L175.43109 309.98126L171.99359 309.98126L171.54047 312.29376Q172.30609 311.7469 173.14984 311.7469Q174.27484 311.7469 175.04047 312.52814Q175.82172 313.3094 175.82172 314.54376Q175.82172 315.7 175.14984 316.5594Q174.32172 317.59064 172.89984 317.59064Q171.72797 317.59064 170.97797 316.9344Q170.24359 316.27814 170.13422 315.2ZM177.13422 313.21564Q177.13422 311.6844 177.44672 310.7625Q177.75922 309.825 178.36859 309.325Q178.99359 308.825 179.93109 308.825Q180.61859 308.825 181.13422 309.10626Q181.66547 309.3875 182.00922 309.91876Q182.35297 310.4344 182.54047 311.1844Q182.72797 311.9344 182.72797 313.21564Q182.72797 314.73126 182.41547 315.65314Q182.11859 316.575 181.49359 317.09064Q180.88422 317.59064 179.93109 317.59064Q178.69672 317.59064 177.97797 316.7Q177.13422 315.6375 177.13422 313.21564ZM178.21234 313.21564Q178.21234 315.325 178.71234 316.02814Q179.21234 316.73126 179.93109 316.73126Q180.66547 316.73126 181.14984 316.02814Q181.64984 315.325 181.64984 313.21564Q181.64984 311.09064 181.14984 310.40314Q180.66547 309.7 179.91547 309.7Q179.19672 309.7 178.75922 310.3094Q178.21234 311.09064 178.21234 313.21564ZM184.13422 313.21564Q184.13422 311.6844 184.44672 310.7625Q184.75922 309.825 185.36859 309.325Q185.99359 308.825 186.93109 308.825Q187.61859 308.825 188.13422 309.10626Q188.66547 309.3875 189.00922 309.91876Q189.35297 310.4344 189.54047 311.1844Q189.72797 311.9344 189.72797 313.21564Q189.72797 314.73126 189.41547 315.65314Q189.11859 316.575 188.49359 317.09064Q187.88422 317.59064 186.93109 317.59064Q185.69672 317.59064 184.97797 316.7Q184.13422 315.6375 184.13422 313.21564ZM185.21234 313.21564Q185.21234 315.325 185.71234 316.02814Q186.21234 316.73126 186.93109 316.73126Q187.66547 316.73126 188.14984 316.02814Q188.64984 315.325 188.64984 313.21564Q188.64984 311.09064 188.14984 310.40314Q187.66547 309.7 186.91547 309.7Q186.19672 309.7 185.75922 310.3094Q185.21234 311.09064 185.21234 313.21564ZM191.13422 313.21564Q191.13422 311.6844 191.44672 310.7625Q191.75922 309.825 192.36859 309.325Q192.99359 308.825 193.93109 308.825Q194.61859 308.825 195.13422 309.10626Q195.66547 309.3875 196.00922 309.91876Q196.35297 310.4344 196.54047 311.1844Q196.72797 311.9344 196.72797 313.21564Q196.72797 314.73126 196.41547 315.65314Q196.11859 316.575 195.49359 317.09064Q194.88422 317.59064 193.93109 317.59064Q192.69672 317.59064 191.97797 316.7Q191.13422 315.6375 191.13422 313.21564ZM192.21234 313.21564Q192.21234 315.325 192.71234 316.02814Q193.21234 316.73126 193.93109 316.73126Q194.66547 316.73126 195.14984 316.02814Q195.64984 315.325 195.64984 313.21564Q195.64984 311.09064 195.14984 310.40314Q194.66547 309.7 193.91547 309.7Q193.19672 309.7 192.75922 310.3094Q192.21234 311.09064 192.21234 313.21564Z" fill-rule="nonzero"/><path fill="#000000" d="M303.20822 317.45L302.16135 317.45L302.16135 310.73126Q301.77072 311.09064 301.14572 311.46564Q300.53635 311.825 300.05197 311.9969L300.05197 310.98126Q300.92697 310.5594 301.58322 309.98126Q302.2551 309.3875 302.53635 308.825L303.20822 308.825L303.20822 317.45ZM306.23947 313.21564Q306.23947 311.6844 306.55197 310.7625Q306.86447 309.825 307.47385 309.325Q308.09885 308.825 309.03635 308.825Q309.72385 308.825 310.23947 309.10626Q310.77072 309.3875 311.11447 309.91876Q311.45822 310.4344 311.64572 311.1844Q311.83322 311.9344 311.83322 313.21564Q311.83322 314.73126 311.52072 315.65314Q311.22385 316.575 310.59885 317.09064Q309.98947 317.59064 309.03635 317.59064Q307.80197 317.59064 307.08322 316.7Q306.23947 315.6375 306.23947 313.21564ZM307.3176 313.21564Q307.3176 315.325 307.8176 316.02814Q308.3176 316.73126 309.03635 316.73126Q309.77072 316.73126 310.2551 316.02814Q310.7551 315.325 310.7551 313.21564Q310.7551 311.09064 310.2551 310.40314Q309.77072 309.7 309.02072 309.7Q308.30197 309.7 307.86447 310.3094Q307.3176 311.09064 307.3176 313.21564ZM313.23947 313.21564Q313.23947 311.6844 313.55197 310.7625Q313.86447 309.825 314.47385 309.325Q315.09885 308.825 316.03635 308.825Q316.72385 308.825 317.23947 309.10626Q317.77072 309.3875 318.11447 309.91876Q318.45822 310.4344 318.64572 311.1844Q318.83322 311.9344 318.83322 313.21564Q318.83322 314.73126 318.52072 315.65314Q318.22385 316.575 317.59885 317.09064Q316.98947 317.59064 316.03635 317.59064Q314.80197 317.59064 314.08322 316.7Q313.23947 315.6375 313.23947 313.21564ZM314.3176 313.21564Q314.3176 315.325 314.8176 316.02814Q315.3176 316.73126 316.03635 316.73126Q316.77072 316.73126 317.2551 316.02814Q317.7551 315.325 317.7551 313.21564Q317.7551 311.09064 317.2551 310.40314Q316.77072 309.7 316.02072 309.7Q315.30197 309.7 314.86447 310.3094Q314.3176 311.09064 314.3176 313.21564ZM320.23947 313.21564Q320.23947 311.6844 320.55197 310.7625Q320.86447 309.825 321.47385 309.325Q322.09885 308.825 323.03635 308.825Q323.72385 308.825 324.23947 309.10626Q324.77072 309.3875 325.11447 309.91876Q325.45822 310.4344 325.64572 311.1844Q325.83322 311.9344 325.83322 313.21564Q325.83322 314.73126 325.52072 315.65314Q325.22385 316.575 324.59885 317.09064Q323.98947 317.59064 323.03635 317.59064Q321.80197 317.59064 321.08322 316.7Q320.23947 315.6375 320.23947 313.21564ZM321.3176 313.21564Q321.3176 315.325 321.8176 316.02814Q322.3176 316.73126 323.03635 316.73126Q323.77072 316.73126 324.2551 316.02814Q324.7551 315.325 324.7551 313.21564Q324.7551 311.09064 324.2551 310.40314Q323.77072 309.7 323.02072 309.7Q322.30197 309.7 321.86447 310.3094Q321.3176 311.09064 321.3176 313.21564ZM327.23947 313.21564Q327.23947 311.6844 327.55197 310.7625Q327.86447 309.825 328.47385 309.325Q329.09885 308.825 330.03635 308.825Q330.72385 308.825 331.23947 309.10626Q331.77072 309.3875 332.11447 309.91876Q332.45822 310.4344 332.64572 311.1844Q332.83322 311.9344 332.83322 313.21564Q332.83322 314.73126 332.52072 315.65314Q332.22385 316.575 331.59885 317.09064Q330.98947 317.59064 330.03635 317.59064Q328.80197 317.59064 328.08322 316.7Q327.23947 315.6375 327.23947 313.21564ZM328.3176 313.21564Q328.3176 315.325 328.8176 316.02814Q329.3176 316.73126 330.03635 316.73126Q330.77072 316.73126 331.2551 316.02814Q331.7551 315.325 331.7551 313.21564Q331.7551 311.09064 331.2551 310.40314Q330.77072 309.7 330.02072 309.7Q329.30197 309.7 328.86447 310.3094Q328.3176 311.09064 328.3176 313.21564Z" fill-rule="nonzero"/><path fill="#000000" d="M435.81348 317.45L434.7666 317.45L434.7666 310.73126Q434.37598 311.09064 433.75098 311.46564Q433.1416 311.825 432.65723 311.9969L432.65723 310.98126Q433.53223 310.5594 434.18848 309.98126Q434.86035 309.3875 435.1416 308.825L435.81348 308.825L435.81348 317.45ZM438.84473 315.2L439.9541 315.10626Q440.0791 315.91876 440.5166 316.325Q440.96973 316.73126 441.61035 316.73126Q442.36035 316.73126 442.8916 316.15314Q443.42285 315.575 443.42285 314.6375Q443.42285 313.73126 442.90723 313.21564Q442.40723 312.6844 441.5791 312.6844Q441.0791 312.6844 440.65723 312.91876Q440.25098 313.15314 440.0166 313.5125L439.03223 313.3875L439.86035 308.98126L444.1416 308.98126L444.1416 309.98126L440.7041 309.98126L440.25098 312.29376Q441.0166 311.7469 441.86035 311.7469Q442.98535 311.7469 443.75098 312.52814Q444.53223 313.3094 444.53223 314.54376Q444.53223 315.7 443.86035 316.5594Q443.03223 317.59064 441.61035 317.59064Q440.43848 317.59064 439.68848 316.9344Q438.9541 316.27814 438.84473 315.2ZM445.84473 313.21564Q445.84473 311.6844 446.15723 310.7625Q446.46973 309.825 447.0791 309.325Q447.7041 308.825 448.6416 308.825Q449.3291 308.825 449.84473 309.10626Q450.37598 309.3875 450.71973 309.91876Q451.06348 310.4344 451.25098 311.1844Q451.43848 311.9344 451.43848 313.21564Q451.43848 314.73126 451.12598 315.65314Q450.8291 316.575 450.2041 317.09064Q449.59473 317.59064 448.6416 317.59064Q447.40723 317.59064 446.68848 316.7Q445.84473 315.6375 445.84473 313.21564ZM446.92285 313.21564Q446.92285 315.325 447.42285 316.02814Q447.92285 316.73126 448.6416 316.73126Q449.37598 316.73126 449.86035 316.02814Q450.36035 315.325 450.36035 313.21564Q450.36035 311.09064 449.86035 310.40314Q449.37598 309.7 448.62598 309.7Q447.90723 309.7 447.46973 310.3094Q446.92285 311.09064 446.92285 313.21564ZM452.84473 313.21564Q452.84473 311.6844 453.15723 310.7625Q453.46973 309.825 454.0791 309.325Q454.7041 308.825 455.6416 308.825Q456.3291 308.825 456.84473 309.10626Q457.37598 309.3875 457.71973 309.91876Q458.06348 310.4344 458.25098 311.1844Q458.43848 311.9344 458.43848 313.21564Q458.43848 314.73126 458.12598 315.65314Q457.8291 316.575 457.2041 317.09064Q456.59473 317.59064 455.6416 317.59064Q454.40723 317.59064 453.68848 316.7Q452.84473 315.6375 452.84473 313.21564ZM453.92285 313.21564Q453.92285 315.325 454.42285 316.02814Q454.92285 316.73126 455.6416 316.73126Q456.37598 316.73126 456.86035 316.02814Q457.36035 315.325 457.36035 313.21564Q457.36035 311.09064 456.86035 310.40314Q456.37598 309.7 455.62598 309.7Q454.90723 309.7 454.46973 310.3094Q453.92285 311.09064 453.92285 313.21564ZM459.84473 313.21564Q459.84473 311.6844 460.15723 310.7625Q460.46973 309.825 461.0791 309.325Q461.7041 308.825 462.6416 308.825Q463.3291 308.825 463.84473 309.10626Q464.37598 309.3875 464.71973 309.91876Q465.06348 310.4344 465.25098 311.1844Q465.43848 311.9344 465.43848 313.21564Q465.43848 314.73126 465.12598 315.65314Q464.8291 316.575 464.2041 317.09064Q463.59473 317.59064 462.6416 317.59064Q461.40723 317.59064 460.68848 316.7Q459.84473 315.6375 459.84473 313.21564ZM460.92285 313.21564Q460.92285 315.325 461.42285 316.02814Q461.92285 316.73126 462.6416 316.73126Q463.37598 316.73126 463.86035 316.02814Q464.36035 315.325 464.36035 313.21564Q464.36035 311.09064 463.86035 310.40314Q463.37598 309.7 462.62598 309.7Q461.90723 309.7 461.46973 310.3094Q460.92285 311.09064 460.92285 313.21564Z" fill-rule="nonzero"/><path fill="#000000" d="M569.9969 316.4344L569.9969 317.45L564.3094 317.45Q564.3094 317.075 564.4344 316.71564Q564.65314 316.1375 565.1219 315.575Q565.60626 315.0125 566.5125 314.27814Q567.91876 313.1219 568.40314 312.45Q568.90314 311.77814 568.90314 311.1844Q568.90314 310.5594 568.45 310.1375Q567.9969 309.7 567.27814 309.7Q566.5125 309.7 566.0594 310.15314Q565.60626 310.60626 565.59064 311.41876L564.5125 311.3094Q564.6219 310.09064 565.34064 309.46564Q566.075 308.825 567.3094 308.825Q568.54376 308.825 569.2625 309.5125Q569.98126 310.2 569.98126 311.21564Q569.98126 311.73126 569.7625 312.23126Q569.5594 312.71564 569.0594 313.27814Q568.575 313.825 567.45 314.77814Q566.4969 315.575 566.21564 315.8719Q565.95 316.15314 565.77814 316.4344L569.9969 316.4344ZM571.45 313.21564Q571.45 311.6844 571.7625 310.7625Q572.075 309.825 572.6844 309.325Q573.3094 308.825 574.2469 308.825Q574.9344 308.825 575.45 309.10626Q575.98126 309.3875 576.325 309.91876Q576.66876 310.4344 576.85626 311.1844Q577.04376 311.9344 577.04376 313.21564Q577.04376 314.73126 576.73126 315.65314Q576.4344 316.575 575.8094 317.09064Q575.2 317.59064 574.2469 317.59064Q573.0125 317.59064 572.29376 316.7Q571.45 315.6375 571.45 313.21564ZM572.52814 313.21564Q572.52814 315.325 573.02814 316.02814Q573.52814 316.73126 574.2469 316.73126Q574.98126 316.73126 575.46564 316.02814Q575.96564 315.325 575.96564 313.21564Q575.96564 311.09064 575.46564 310.40314Q574.98126 309.7 574.23126 309.7Q573.5125 309.7 573.075 310.3094Q572.52814 311.09064 572.52814 313.21564ZM578.45 313.21564Q578.45 311.6844 578.7625 310.7625Q579.075 309.825 579.6844 309.325Q580.3094 308.825 581.2469 308.825Q581.9344 308.825 582.45 309.10626Q582.98126 309.3875 583.325 309.91876Q583.66876 310.4344 583.85626 311.1844Q584.04376 311.9344 584.04376 313.21564Q584.04376 314.73126 583.73126 315.65314Q583.4344 316.575 582.8094 317.09064Q582.2 317.59064 581.2469 317.59064Q580.0125 317.59064 579.29376 316.7Q578.45 315.6375 578.45 313.21564ZM579.52814 313.21564Q579.52814 315.325 580.02814 316.02814Q580.52814 316.73126 581.2469 316.73126Q581.98126 316.73126 582.46564 316.02814Q582.96564 315.325 582.96564 313.21564Q582.96564 311.09064 582.46564 310.40314Q581.98126 309.7 581.23126 309.7Q580.5125 309.7 580.075 310.3094Q579.52814 311.09064 579.52814 313.21564ZM585.45 313.21564Q585.45 311.6844 585.7625 310.7625Q586.075 309.825 586.6844 309.325Q587.3094 308.825 588.2469 308.825Q588.9344 308.825 589.45 309.10626Q589.98126 309.3875 590.325 309.91876Q590.66876 310.4344 590.85626 311.1844Q591.04376 311.9344 591.04376 313.21564Q591.04376 314.73126 590.73126 315.65314Q590.4344 316.575 589.8094 317.09064Q589.2 317.59064 588.2469 317.59064Q587.0125 317.59064 586.29376 316.7Q585.45 315.6375 585.45 313.21564ZM586.52814 313.21564Q586.52814 315.325 587.02814 316.02814Q587.52814 316.73126 588.2469 316.73126Q588.98126 316.73126 589.46564 316.02814Q589.96564 315.325 589.96564 313.21564Q589.96564 311.09064 589.46564 310.40314Q588.98126 309.7 588.23126 309.7Q587.5125 309.7 587.075 310.3094Q586.52814 311.09064 586.52814 313.21564ZM592.45 313.21564Q592.45 311.6844 592.7625 310.7625Q593.075 309.825 593.6844 309.325Q594.3094 308.825 595.2469 308.825Q595.9344 308.825 596.45 309.10626Q596.98126 309.3875 597.325 309.91876Q597.66876 310.4344 597.85626 311.1844Q598.04376 311.9344 598.04376 313.21564Q598.04376 314.73126 597.73126 315.65314Q597.4344 316.575 596.8094 317.09064Q596.2 317.59064 595.2469 317.59064Q594.0125 317.59064 593.29376 316.7Q592.45 315.6375 592.45 313.21564ZM593.52814 313.21564Q593.52814 315.325 594.02814 316.02814Q594.52814 316.73126 595.2469 316.73126Q595.98126 316.73126 596.46564 316.02814Q596.96564 315.325 596.96564 313.21564Q596.96564 311.09064 596.46564 310.40314Q595.98126 309.7 595.23126 309.7Q594.5125 309.7 594.075 310.3094Q593.52814 311.09064 593.52814 313.21564Z" fill-rule="nonzero"/><path fill="#4285f4" d="M131.5 56.916668C131.5 56.364384 131.94771 55.916668 132.5 55.916668L142.5 55.916668C143.05229 55.916668 143.5 56.364384 143.5 56.916668L143.5 66.916664C143.5 67.46895 143.05229 67.916664 142.5 67.916664L132.5 67.916664C131.94771 67.916664 131.5 67.46895 131.5 66.916664Z" fill-rule="nonzero"/><path fill="#1a1a1a" d="M154.60938 65.916664L154.60938 58.33854L151.78125 58.33854L151.78125 57.322914L158.59375 57.322914L158.59375 58.33854L155.75 58.33854L155.75 65.916664L154.60938 65.916664ZM159.29688 58.541664L159.29688 57.322914L160.35938 57.322914L160.35938 58.541664L159.29688 58.541664ZM159.29688 65.916664L159.29688 59.697914L160.35938 59.697914L160.35938 65.916664L159.29688 65.916664ZM162.29688 65.916664L162.29688 59.697914L163.23438 59.697914L163.23438 60.572914Q163.53125 60.104164 164.01562 59.83854Q164.5 59.55729 165.125 59.55729Q165.8125 59.55729 166.25 59.83854Q166.70312 60.11979 166.875 60.635414Q167.625 59.55729 168.79688 59.55729Q169.73438 59.55729 170.21875 60.072914Q170.71875 60.572914 170.71875 61.65104L170.71875 65.916664L169.67188 65.916664L169.67188 61.99479Q169.67188 61.36979 169.5625 61.08854Q169.46875 60.80729 169.20312 60.635414Q168.9375 60.46354 168.5625 60.46354Q167.90625 60.46354 167.46875 60.90104Q167.04688 61.33854 167.04688 62.30729L167.04688 65.916664L165.98438 65.916664L165.98438 61.86979Q165.98438 61.166664 165.71875 60.822914Q165.46875 60.46354 164.89062 60.46354Q164.4375 60.46354 164.0625 60.697914Q163.6875 60.93229 163.51562 61.385414Q163.34375 61.83854 163.34375 62.68229L163.34375 65.916664L162.29688 65.916664ZM177.54688 63.916664L178.64062 64.041664Q178.39062 64.99479 177.6875 65.52604Q176.98438 66.05729 175.90625 66.05729Q174.54688 66.05729 173.73438 65.21354Q172.9375 64.36979 172.9375 62.854164Q172.9375 61.291664 173.75 60.43229Q174.5625 59.55729 175.84375 59.55729Q177.09375 59.55729 177.875 60.40104Q178.67188 61.24479 178.67188 62.791664Q178.67188 62.885414 178.67188 63.072914L174.03125 63.072914Q174.09375 64.104164 174.60938 64.65104Q175.125 65.18229 175.90625 65.18229Q176.48438 65.18229 176.89062 64.885414Q177.3125 64.572914 177.54688 63.916664ZM174.09375 62.21354L177.5625 62.21354Q177.5 61.416664 177.17188 61.02604Q176.65625 60.416664 175.85938 60.416664Q175.125 60.416664 174.625 60.90104Q174.14062 61.385414 174.09375 62.21354ZM185.59375 64.979164L185.75 65.90104Q185.29688 65.99479 184.95312 65.99479Q184.375 65.99479 184.0625 65.822914Q183.75 65.635414 183.60938 65.33854Q183.48438 65.041664 183.48438 64.08854L183.48438 60.510414L182.71875 60.510414L182.71875 59.697914L183.48438 59.697914L183.48438 58.15104L184.53125 57.52604L184.53125 59.697914L185.59375 59.697914L185.59375 60.510414L184.53125 60.510414L184.53125 64.15104Q184.53125 64.604164 184.57812 64.729164Q184.64062 64.854164 184.76562 64.93229Q184.89062 65.010414 185.125 65.010414Q185.3125 65.010414 185.59375 64.979164ZM185.90625 62.80729Q185.90625 61.072914 186.85938 60.24479Q187.65625 59.55729 188.8125 59.55729Q190.09375 59.55729 190.90625 60.40104Q191.73438 61.229164 191.73438 62.71354Q191.73438 63.916664 191.375 64.604164Q191.01562 65.291664 190.3125 65.68229Q189.625 66.05729 188.8125 66.05729Q187.51562 66.05729 186.70312 65.229164Q185.90625 64.385414 185.90625 62.80729ZM186.98438 62.80729Q186.98438 63.99479 187.5 64.58854Q188.03125 65.18229 188.8125 65.18229Q189.60938 65.18229 190.125 64.58854Q190.64062 63.99479 190.64062 62.77604Q190.64062 61.61979 190.10938 61.02604Q189.59375 60.43229 188.8125 60.43229Q188.03125 60.43229 187.5 61.02604Q186.98438 61.604164 186.98438 62.80729ZM196.29688 58.541664L196.29688 57.322914L197.35938 57.322914L197.35938 58.541664L196.29688 58.541664ZM196.29688 65.916664L196.29688 59.697914L197.35938 59.697914L197.35938 65.916664L196.29688 65.916664ZM199.29688 65.916664L199.29688 59.697914L200.23438 59.697914L200.23438 60.572914Q200.92188 59.55729 202.21875 59.55729Q202.78125 59.55729 203.25 59.760414Q203.73438 59.96354 203.96875 60.291664Q204.20312 60.61979 204.29688 61.05729Q204.34375 61.354164 204.34375 62.08854L204.34375 65.916664L203.29688 65.916664L203.29688 62.135414Q203.29688 61.479164 203.17188 61.166664Q203.04688 60.854164 202.73438 60.666664Q202.42188 60.46354 202.0 60.46354Q201.32812 60.46354 200.82812 60.90104Q200.34375 61.322914 200.34375 62.510414L200.34375 65.916664L199.29688 65.916664ZM210.32812 65.916664L210.32812 65.135414Q209.73438 66.05729 208.59375 66.05729Q207.84375 66.05729 207.21875 65.65104Q206.59375 65.229164 206.25 64.49479Q205.90625 63.760414 205.90625 62.80729Q205.90625 61.885414 206.21875 61.11979Q206.53125 60.354164 207.15625 59.96354Q207.78125 59.55729 208.54688 59.55729Q209.10938 59.55729 209.54688 59.791664Q209.98438 60.02604 210.26562 60.40104L210.26562 57.322914L211.3125 57.322914L211.3125 65.916664L210.32812 65.916664ZM207.0 62.80729Q207.0 64.010414 207.5 64.604164Q208.0 65.18229 208.6875 65.18229Q209.375 65.18229 209.85938 64.61979Q210.34375 64.05729 210.34375 62.90104Q210.34375 61.61979 209.84375 61.02604Q209.35938 60.43229 208.64062 60.43229Q207.9375 60.43229 207.46875 61.010414Q207.0 61.572914 207.0 62.80729ZM217.54688 63.916664L218.64062 64.041664Q218.39062 64.99479 217.6875 65.52604Q216.98438 66.05729 215.90625 66.05729Q214.54688 66.05729 213.73438 65.21354Q212.9375 64.36979 212.9375 62.854164Q212.9375 61.291664 213.75 60.43229Q214.5625 59.55729 215.84375 59.55729Q217.09375 59.55729 217.875 60.40104Q218.67188 61.24479 218.67188 62.791664Q218.67188 62.885414 218.67188 63.072914L214.03125 63.072914Q214.09375 64.104164 214.60938 64.65104Q215.125 65.18229 215.90625 65.18229Q216.48438 65.18229 216.89062 64.885414Q217.3125 64.572914 217.54688 63.916664ZM214.09375 62.21354L217.5625 62.21354Q217.5 61.416664 217.17188 61.02604Q216.65625 60.416664 215.85938 60.416664Q215.125 60.416664 214.625 60.90104Q214.14062 61.385414 214.09375 62.21354ZM219.59375 65.916664L221.85938 62.68229L219.76562 59.697914L221.07812 59.697914L222.03125 61.15104Q222.29688 61.572914 222.46875 61.854164Q222.71875 61.46354 222.9375 61.166664L223.98438 59.697914L225.25 59.697914L223.09375 62.61979L225.40625 65.916664L224.125 65.916664L222.84375 63.979164L222.5 63.46354L220.85938 65.916664L219.59375 65.916664Z" fill-rule="nonzero"/><path stroke="#4285f4" stroke-width="4.0" stroke-linecap="butt" stroke-opacity="0.4" d="M240.5 61.916668L252.5 61.916668" fill-rule="nonzero"/><path fill="#1a1a1a" d="M263.60938 65.916664L263.60938 58.33854L260.78125 58.33854L260.78125 57.322914L267.59375 57.322914L267.59375 58.33854L264.75 58.33854L264.75 65.916664L263.60938 65.916664ZM268.28125 65.916664L268.28125 59.697914L269.23438 59.697914L269.23438 60.635414Q269.59375 59.979164 269.89062 59.77604Q270.20312 59.55729 270.57812 59.55729Q271.10938 59.55729 271.65625 59.885414L271.29688 60.86979Q270.90625 60.635414 270.53125 60.635414Q270.17188 60.635414 269.89062 60.854164Q269.625 61.05729 269.51562 61.43229Q269.32812 61.99479 269.32812 62.65104L269.32812 65.916664L268.28125 65.916664ZM276.54688 63.916664L277.64062 64.041664Q277.39062 64.99479 276.6875 65.52604Q275.98438 66.05729 274.90625 66.05729Q273.54688 66.05729 272.73438 65.21354Q271.9375 64.36979 271.9375 62.854164Q271.9375 61.291664 272.75 60.43229Q273.5625 59.55729 274.84375 59.55729Q276.09375 59.55729 276.875 60.40104Q277.67188 61.24479 277.67188 62.791664Q277.67188 62.885414 277.67188 63.072914L273.03125 63.072914Q273.09375 64.104164 273.60938 64.65104Q274.125 65.18229 274.90625 65.18229Q275.48438 65.18229 275.89062 64.885414Q276.3125 64.572914 276.54688 63.916664ZM273.09375 62.21354L276.5625 62.21354Q276.5 61.416664 276.17188 61.02604Q275.65625 60.416664 274.85938 60.416664Q274.125 60.416664 273.625 60.90104Q273.14062 61.385414 273.09375 62.21354ZM279.29688 65.916664L279.29688 59.697914L280.23438 59.697914L280.23438 60.572914Q280.92188 59.55729 282.21875 59.55729Q282.78125 59.55729 283.25 59.760414Q283.73438 59.96354 283.96875 60.291664Q284.20312 60.61979 284.29688 61.05729Q284.34375 61.354164 284.34375 62.08854L284.34375 65.916664L283.29688 65.916664L283.29688 62.135414Q283.29688 61.479164 283.17188 61.166664Q283.04688 60.854164 282.73438 60.666664Q282.42188 60.46354 282.0 60.46354Q281.32812 60.46354 280.82812 60.90104Q280.34375 61.322914 280.34375 62.510414L280.34375 65.916664L279.29688 65.916664ZM290.32812 65.916664L290.32812 65.135414Q289.73438 66.05729 288.59375 66.05729Q287.84375 66.05729 287.21875 65.65104Q286.59375 65.229164 286.25 64.49479Q285.90625 63.760414 285.90625 62.80729Q285.90625 61.885414 286.21875 61.11979Q286.53125 60.354164 287.15625 59.96354Q287.78125 59.55729 288.54688 59.55729Q289.10938 59.55729 289.54688 59.791664Q289.98438 60.02604 290.26562 60.40104L290.26562 57.322914L291.3125 57.322914L291.3125 65.916664L290.32812 65.916664ZM287.0 62.80729Q287.0 64.010414 287.5 64.604164Q288.0 65.18229 288.6875 65.18229Q289.375 65.18229 289.85938 64.61979Q290.34375 64.05729 290.34375 62.90104Q290.34375 61.61979 289.84375 61.02604Q289.35938 60.43229 288.64062 60.43229Q287.9375 60.43229 287.46875 61.010414Q287.0 61.572914 287.0 62.80729ZM296.26562 65.916664L296.26562 57.322914L297.32812 57.322914L297.32812 65.916664L296.26562 65.916664ZM299.29688 58.541664L299.29688 57.322914L300.35938 57.322914L300.35938 58.541664L299.29688 58.541664ZM299.29688 65.916664L299.29688 59.697914L300.35938 59.697914L300.35938 65.916664L299.29688 65.916664ZM302.29688 65.916664L302.29688 59.697914L303.23438 59.697914L303.23438 60.572914Q303.92188 59.55729 305.21875 59.55729Q305.78125 59.55729 306.25 59.760414Q306.73438 59.96354 306.96875 60.291664Q307.20312 60.61979 307.29688 61.05729Q307.34375 61.354164 307.34375 62.08854L307.34375 65.916664L306.29688 65.916664L306.29688 62.135414Q306.29688 61.479164 306.17188 61.166664Q306.04688 60.854164 305.73438 60.666664Q305.42188 60.46354 305.0 60.46354Q304.32812 60.46354 303.82812 60.90104Q303.34375 61.322914 303.34375 62.510414L303.34375 65.916664L302.29688 65.916664ZM313.54688 63.916664L314.64062 64.041664Q314.39062 64.99479 313.6875 65.52604Q312.98438 66.05729 311.90625 66.05729Q310.54688 66.05729 309.73438 65.21354Q308.9375 64.36979 308.9375 62.854164Q308.9375 61.291664 309.75 60.43229Q310.5625 59.55729 311.84375 59.55729Q313.09375 59.55729 313.875 60.40104Q314.67188 61.24479 314.67188 62.791664Q314.67188 62.885414 314.67188 63.072914L310.03125 63.072914Q310.09375 64.104164 310.60938 64.65104Q311.125 65.18229 311.90625 65.18229Q312.48438 65.18229 312.89062 64.885414Q313.3125 64.572914 313.54688 63.916664ZM310.09375 62.21354L313.5625 62.21354Q313.5 61.416664 313.17188 61.02604Q312.65625 60.416664 311.85938 60.416664Q311.125 60.416664 310.625 60.90104Q310.14062 61.385414 310.09375 62.21354ZM319.54688 65.916664L319.54688 60.510414L318.60938 60.510414L318.60938 59.697914L319.54688 59.697914L319.54688 59.02604Q319.54688 58.40104 319.65625 58.104164Q319.8125 57.68229 320.1875 57.43229Q320.57812 57.18229 321.26562 57.18229Q321.71875 57.18229 322.25 57.291664L322.09375 58.197914Q321.76562 58.15104 321.46875 58.15104Q320.98438 58.15104 320.78125 58.354164Q320.59375 58.55729 320.59375 59.11979L320.59375 59.697914L321.8125 59.697914L321.8125 60.510414L320.59375 60.510414L320.59375 65.916664L319.54688 65.916664ZM321.90625 62.80729Q321.90625 61.072914 322.85938 60.24479Q323.65625 59.55729 324.8125 59.55729Q326.09375 59.55729 326.90625 60.40104Q327.73438 61.229164 327.73438 62.71354Q327.73438 63.916664 327.375 64.604164Q327.01562 65.291664 326.3125 65.68229Q325.625 66.05729 324.8125 66.05729Q323.51562 66.05729 322.70312 65.229164Q321.90625 64.385414 321.90625 62.80729ZM322.98438 62.80729Q322.98438 63.99479 323.5 64.58854Q324.03125 65.18229 324.8125 65.18229Q325.60938 65.18229 326.125 64.58854Q326.64062 63.99479 326.64062 62.77604Q326.64062 61.61979 326.10938 61.02604Q325.59375 60.43229 324.8125 60.43229Q324.03125 60.43229 323.5 61.02604Q322.98438 61.604164 322.98438 62.80729ZM329.28125 65.916664L329.28125 59.697914L330.23438 59.697914L330.23438 60.635414Q330.59375 59.979164 330.89062 59.77604Q331.20312 59.55729 331.57812 59.55729Q332.10938 59.55729 332.65625 59.885414L332.29688 60.86979Q331.90625 60.635414 331.53125 60.635414Q331.17188 60.635414 330.89062 60.854164Q330.625 61.05729 330.51562 61.43229Q330.32812 61.99479 330.32812 62.65104L330.32812 65.916664L329.28125 65.916664ZM338.60938 65.916664L338.60938 58.33854L335.78125 58.33854L335.78125 57.322914L342.59375 57.322914L342.59375 58.33854L339.75 58.33854L339.75 65.916664L338.60938 65.916664ZM343.29688 58.541664L343.29688 57.322914L344.35938 57.322914L344.35938 58.541664L343.29688 58.541664ZM343.29688 65.916664L343.29688 59.697914L344.35938 59.697914L344.35938 65.916664L343.29688 65.916664ZM346.29688 65.916664L346.29688 59.697914L347.23438 59.697914L347.23438 60.572914Q347.53125 60.104164 348.01562 59.83854Q348.5 59.55729 349.125 59.55729Q349.8125 59.55729 350.25 59.83854Q350.70312 60.11979 350.875 60.635414Q351.625 59.55729 352.79688 59.55729Q353.73438 59.55729 354.21875 60.072914Q354.71875 60.572914 354.71875 61.65104L354.71875 65.916664L353.67188 65.916664L353.67188 61.99479Q353.67188 61.36979 353.5625 61.08854Q353.46875 60.80729 353.20312 60.635414Q352.9375 60.46354 352.5625 60.46354Q351.90625 60.46354 351.46875 60.90104Q351.04688 61.33854 351.04688 62.30729L351.04688 65.916664L349.98438 65.916664L349.98438 61.86979Q349.98438 61.166664 349.71875 60.822914Q349.46875 60.46354 348.89062 60.46354Q348.4375 60.46354 348.0625 60.697914Q347.6875 60.93229 347.51562 61.385414Q347.34375 61.83854 347.34375 62.68229L347.34375 65.916664L346.29688 65.916664ZM361.54688 63.916664L362.64062 64.041664Q362.39062 64.99479 361.6875 65.52604Q360.98438 66.05729 359.90625 66.05729Q358.54688 66.05729 357.73438 65.21354Q356.9375 64.36979 356.9375 62.854164Q356.9375 61.291664 357.75 60.43229Q358.5625 59.55729 359.84375 59.55729Q361.09375 59.55729 361.875 60.40104Q362.67188 61.24479 362.67188 62.791664Q362.67188 62.885414 362.67188 63.072914L358.03125 63.072914Q358.09375 64.104164 358.60938 64.65104Q359.125 65.18229 359.90625 65.18229Q360.48438 65.18229 360.89062 64.885414Q361.3125 64.572914 361.54688 63.916664ZM358.09375 62.21354L361.5625 62.21354Q361.5 61.416664 361.17188 61.02604Q360.65625 60.416664 359.85938 60.416664Q359.125 60.416664 358.625 60.90104Q358.14062 61.385414 358.09375 62.21354ZM369.59375 64.979164L369.75 65.90104Q369.29688 65.99479 368.95312 65.99479Q368.375 65.99479 368.0625 65.822914Q367.75 65.635414 367.60938 65.33854Q367.48438 65.041664 367.48438 64.08854L367.48438 60.510414L366.71875 60.510414L366.71875 59.697914L367.48438 59.697914L367.48438 58.15104L368.53125 57.52604L368.53125 59.697914L369.59375 59.697914L369.59375 60.510414L368.53125 60.510414L368.53125 64.15104Q368.53125 64.604164 368.57812 64.729164Q368.64062 64.854164 368.76562 64.93229Q368.89062 65.010414 369.125 65.010414Q369.3125 65.010414 369.59375 64.979164ZM369.90625 62.80729Q369.90625 61.072914 370.85938 60.24479Q371.65625 59.55729 372.8125 59.55729Q374.09375 59.55729 374.90625 60.40104Q375.73438 61.229164 375.73438 62.71354Q375.73438 63.916664 375.375 64.604164Q375.01562 65.291664 374.3125 65.68229Q373.625 66.05729 372.8125 66.05729Q371.51562 66.05729 370.70312 65.229164Q369.90625 64.385414 369.90625 62.80729ZM370.98438 62.80729Q370.98438 63.99479 371.5 64.58854Q372.03125 65.18229 372.8125 65.18229Q373.60938 65.18229 374.125 64.58854Q374.64062 63.99479 374.64062 62.77604Q374.64062 61.61979 374.10938 61.02604Q373.59375 60.43229 372.8125 60.43229Q372.03125 60.43229 371.5 61.02604Q370.98438 61.604164 370.98438 62.80729ZM380.29688 58.541664L380.29688 57.322914L381.35938 57.322914L381.35938 58.541664L380.29688 58.541664ZM380.29688 65.916664L380.29688 59.697914L381.35938 59.697914L381.35938 65.916664L380.29688 65.916664ZM383.29688 65.916664L383.29688 59.697914L384.23438 59.697914L384.23438 60.572914Q384.92188 59.55729 386.21875 59.55729Q386.78125 59.55729 387.25 59.760414Q387.73438 59.96354 387.96875 60.291664Q388.20312 60.61979 388.29688 61.05729Q388.34375 61.354164 388.34375 62.08854L388.34375 65.916664L387.29688 65.916664L387.29688 62.135414Q387.29688 61.479164 387.17188 61.166664Q387.04688 60.854164 386.73438 60.666664Q386.42188 60.46354 386.0 60.46354Q385.32812 60.46354 384.82812 60.90104Q384.34375 61.322914 384.34375 62.510414L384.34375 65.916664L383.29688 65.916664ZM394.32812 65.916664L394.32812 65.135414Q393.73438 66.05729 392.59375 66.05729Q391.84375 66.05729 391.21875 65.65104Q390.59375 65.229164 390.25 64.49479Q389.90625 63.760414 389.90625 62.80729Q389.90625 61.885414 390.21875 61.11979Q390.53125 60.354164 391.15625 59.96354Q391.78125 59.55729 392.54688 59.55729Q393.10938 59.55729 393.54688 59.791664Q393.98438 60.02604 394.26562 60.40104L394.26562 57.322914L395.3125 57.322914L395.3125 65.916664L394.32812 65.916664ZM391.0 62.80729Q391.0 64.010414 391.5 64.604164Q392.0 65.18229 392.6875 65.18229Q393.375 65.18229 393.85938 64.61979Q394.34375 64.05729 394.34375 62.90104Q394.34375 61.61979 393.84375 61.02604Q393.35938 60.43229 392.64062 60.43229Q391.9375 60.43229 391.46875 61.010414Q391.0 61.572914 391.0 62.80729ZM401.54688 63.916664L402.64062 64.041664Q402.39062 64.99479 401.6875 65.52604Q400.98438 66.05729 399.90625 66.05729Q398.54688 66.05729 397.73438 65.21354Q396.9375 64.36979 396.9375 62.854164Q396.9375 61.291664 397.75 60.43229Q398.5625 59.55729 399.84375 59.55729Q401.09375 59.55729 401.875 60.40104Q402.67188 61.24479 402.67188 62.791664Q402.67188 62.885414 402.67188 63.072914L398.03125 63.072914Q398.09375 64.104164 398.60938 64.65104Q399.125 65.18229 399.90625 65.18229Q400.48438 65.18229 400.89062 64.885414Q401.3125 64.572914 401.54688 63.916664ZM398.09375 62.21354L401.5625 62.21354Q401.5 61.416664 401.17188 61.02604Q400.65625 60.416664 399.85938 60.416664Q399.125 60.416664 398.625 60.90104Q398.14062 61.385414 398.09375 62.21354ZM403.59375 65.916664L405.85938 62.68229L403.76562 59.697914L405.07812 59.697914L406.03125 61.15104Q406.29688 61.572914 406.46875 61.854164Q406.71875 61.46354 406.9375 61.166664L407.98438 59.697914L409.25 59.697914L407.09375 62.61979L409.40625 65.916664L408.125 65.916664L406.84375 63.979164L406.5 63.46354L404.85938 65.916664L403.59375 65.916664ZM412.4375 65.916664L412.4375 57.322914L416.25 57.322914Q417.40625 57.322914 418.0 57.55729Q418.59375 57.791664 418.95312 58.385414Q419.3125 58.96354 419.3125 59.666664Q419.3125 60.58854 418.71875 61.21354Q418.125 61.83854 416.89062 62.010414Q417.34375 62.229164 417.57812 62.43229Q418.07812 62.885414 418.51562 63.572914L420.01562 65.916664L418.57812 65.916664L417.45312 64.135414Q416.95312 63.354164 416.625 62.947914Q416.3125 62.541664 416.04688 62.385414Q415.79688 62.21354 415.53125 62.135414Q415.34375 62.104164 414.90625 62.104164L413.57812 62.104164L413.57812 65.916664L412.4375 65.916664ZM413.57812 61.11979L416.03125 61.11979Q416.79688 61.11979 417.23438 60.96354Q417.6875 60.791664 417.90625 60.447914Q418.14062 60.08854 418.14062 59.666664Q418.14062 59.05729 417.6875 58.666664Q417.25 58.27604 416.29688 58.27604L413.57812 58.27604L413.57812 61.11979ZM420.64062 61.61979Q420.6875 61.291664 420.92188 60.947914Q421.29688 60.447914 422.14062 59.83854Q422.98438 59.229164 423.14062 59.041664Q423.35938 58.80729 423.35938 58.55729Q423.35938 58.27604 423.14062 58.104164Q422.9375 57.916664 422.54688 57.916664Q422.15625 57.916664 421.96875 58.05729Q421.78125 58.18229 421.65625 58.572914L420.76562 58.479164Q420.9375 57.83854 421.35938 57.52604Q421.78125 57.21354 422.5625 57.21354Q423.45312 57.21354 423.85938 57.572914Q424.28125 57.916664 424.28125 58.416664Q424.28125 58.90104 423.92188 59.33854Q423.67188 59.666664 422.73438 60.33854Q422.23438 60.697914 422.03125 60.916664L424.29688 60.916664L424.29688 61.61979L420.64062 61.61979ZM433.84375 60.86979L428.17188 60.86979L428.17188 59.885414L433.84375 59.885414L433.84375 60.86979ZM433.84375 63.479164L428.17188 63.479164L428.17188 62.49479L433.84375 62.49479L433.84375 63.479164ZM438.0 61.68229Q438.0 60.15104 438.3125 59.229164Q438.625 58.291664 439.23438 57.791664Q439.85938 57.291664 440.79688 57.291664Q441.48438 57.291664 442.0 57.572914Q442.53125 57.854164 442.875 58.385414Q443.21875 58.90104 443.40625 59.65104Q443.59375 60.40104 443.59375 61.68229Q443.59375 63.197914 443.28125 64.11979Q442.98438 65.041664 442.35938 65.55729Q441.75 66.05729 440.79688 66.05729Q439.5625 66.05729 438.84375 65.166664Q438.0 64.104164 438.0 61.68229ZM439.07812 61.68229Q439.07812 63.791664 439.57812 64.49479Q440.07812 65.197914 440.79688 65.197914Q441.53125 65.197914 442.01562 64.49479Q442.51562 63.791664 442.51562 61.68229Q442.51562 59.55729 442.01562 58.86979Q441.53125 58.166664 440.78125 58.166664Q440.0625 58.166664 439.625 58.77604Q439.07812 59.55729 439.07812 61.68229ZM445.59375 65.916664L445.59375 64.71354L446.79688 64.71354L446.79688 65.916664L445.59375 65.916664ZM453.46875 59.43229L452.42188 59.510414Q452.28125 58.885414 452.03125 58.604164Q451.59375 58.15104 450.96875 58.15104Q450.46875 58.15104 450.07812 58.43229Q449.59375 58.80729 449.29688 59.510414Q449.01562 60.197914 449.0 61.479164Q449.375 60.90104 449.92188 60.61979Q450.48438 60.33854 451.09375 60.33854Q452.14062 60.33854 452.875 61.11979Q453.625 61.90104 453.625 63.11979Q453.625 63.93229 453.26562 64.635414Q452.92188 65.322914 452.3125 65.697914Q451.70312 66.05729 450.9375 66.05729Q449.60938 66.05729 448.78125 65.08854Q447.95312 64.11979 447.95312 61.90104Q447.95312 59.40104 448.875 58.27604Q449.67188 57.291664 451.03125 57.291664Q452.04688 57.291664 452.6875 57.86979Q453.34375 58.43229 453.46875 59.43229ZM449.17188 63.135414Q449.17188 63.68229 449.39062 64.18229Q449.625 64.666664 450.03125 64.93229Q450.45312 65.197914 450.92188 65.197914Q451.57812 65.197914 452.0625 64.666664Q452.54688 64.11979 452.54688 63.197914Q452.54688 62.30729 452.0625 61.791664Q451.59375 61.27604 450.875 61.27604Q450.15625 61.27604 449.65625 61.791664Q449.17188 62.30729 449.17188 63.135414ZM455.0 63.666664L456.10938 63.572914Q456.23438 64.385414 456.67188 64.791664Q457.125 65.197914 457.76562 65.197914Q458.51562 65.197914 459.04688 64.61979Q459.57812 64.041664 459.57812 63.104164Q459.57812 62.197914 459.0625 61.68229Q458.5625 61.15104 457.73438 61.15104Q457.23438 61.15104 456.8125 61.385414Q456.40625 61.61979 456.17188 61.979164L455.1875 61.854164L456.01562 57.447914L460.29688 57.447914L460.29688 58.447914L456.85938 58.447914L456.40625 60.760414Q457.17188 60.21354 458.01562 60.21354Q459.14062 60.21354 459.90625 60.99479Q460.6875 61.77604 460.6875 63.010414Q460.6875 64.166664 460.01562 65.02604Q459.1875 66.05729 457.76562 66.05729Q456.59375 66.05729 455.84375 65.40104Q455.10938 64.74479 455.0 63.666664ZM467.46875 59.43229L466.42188 59.510414Q466.28125 58.885414 466.03125 58.604164Q465.59375 58.15104 464.96875 58.15104Q464.46875 58.15104 464.07812 58.43229Q463.59375 58.80729 463.29688 59.510414Q463.01562 60.197914 463.0 61.479164Q463.375 60.90104 463.92188 60.61979Q464.48438 60.33854 465.09375 60.33854Q466.14062 60.33854 466.875 61.11979Q467.625 61.90104 467.625 63.11979Q467.625 63.93229 467.26562 64.635414Q466.92188 65.322914 466.3125 65.697914Q465.70312 66.05729 464.9375 66.05729Q463.60938 66.05729 462.78125 65.08854Q461.95312 64.11979 461.95312 61.90104Q461.95312 59.40104 462.875 58.27604Q463.67188 57.291664 465.03125 57.291664Q466.04688 57.291664 466.6875 57.86979Q467.34375 58.43229 467.46875 59.43229ZM463.17188 63.135414Q463.17188 63.68229 463.39062 64.18229Q463.625 64.666664 464.03125 64.93229Q464.45312 65.197914 464.92188 65.197914Q465.57812 65.197914 466.0625 64.666664Q466.54688 64.11979 466.54688 63.197914Q466.54688 62.30729 466.0625 61.791664Q465.59375 61.27604 464.875 61.27604Q464.15625 61.27604 463.65625 61.791664Q463.17188 62.30729 463.17188 63.135414Z" fill-rule="nonzero"/><path fill="#757575" d="M20.409374 37.55L20.409374 23.2375L22.315624 23.2375L22.315624 37.55L20.409374 37.55ZM25.8625 37.55L25.8625 27.175L27.45625 27.175L27.45625 28.659374Q28.596874 26.940624 30.753124 26.940624Q31.690624 26.940624 32.471874 27.284374Q33.26875 27.6125 33.659374 28.159374Q34.05 28.70625 34.20625 29.45625Q34.3 29.95625 34.3 31.175L34.3 37.55L32.534374 37.55L32.534374 31.2375Q32.534374 30.159374 32.33125 29.628124Q32.128124 29.096874 31.596874 28.784374Q31.08125 28.471874 30.378124 28.471874Q29.253124 28.471874 28.440624 29.190624Q27.628124 29.89375 27.628124 31.878124L27.628124 37.55L25.8625 37.55ZM42.596874 37.55L42.596874 36.2375Q41.6125 37.784374 39.690624 37.784374Q38.45625 37.784374 37.409374 37.096874Q36.378124 36.409374 35.8 35.190624Q35.2375 33.971874 35.2375 32.378124Q35.2375 30.815624 35.753124 29.55Q36.26875 28.284374 37.3 27.6125Q38.346874 26.940624 39.6125 26.940624Q40.55 26.940624 41.284374 27.346874Q42.01875 27.7375 42.4875 28.3625L42.4875 23.2375L44.221874 23.2375L44.221874 37.55L42.596874 37.55ZM37.034374 32.378124Q37.034374 34.3625 37.878124 35.346874Q38.721874 36.33125 39.8625 36.33125Q41.01875 36.33125 41.815624 35.39375Q42.628124 34.45625 42.628124 32.51875Q42.628124 30.39375 41.8 29.39375Q40.9875 28.39375 39.784374 28.39375Q38.6125 28.39375 37.815624 29.3625Q37.034374 30.315624 37.034374 32.378124ZM53.971874 34.20625L55.784374 34.440624Q55.3625 36.01875 54.190624 36.909374Q53.034374 37.784374 51.221874 37.784374Q48.95625 37.784374 47.6125 36.39375Q46.284374 34.9875 46.284374 32.45625Q46.284374 29.83125 47.628124 28.39375Q48.971874 26.940624 51.128124 26.940624Q53.20625 26.940624 54.51875 28.3625Q55.846874 29.76875 55.846874 32.346874Q55.846874 32.503124 55.83125 32.815624L48.096874 32.815624Q48.190624 34.51875 49.065624 35.425Q49.940624 36.33125 51.2375 36.33125Q52.20625 36.33125 52.878124 35.83125Q53.565624 35.315624 53.971874 34.20625ZM48.190624 31.3625L53.9875 31.3625Q53.878124 30.065624 53.33125 29.409374Q52.4875 28.39375 51.14375 28.39375Q49.940624 28.39375 49.1125 29.20625Q48.284374 30.003124 48.190624 31.3625ZM56.690624 37.55L60.4875 32.159374L56.9875 27.175L59.175 27.175L60.76875 29.6125Q61.221874 30.3 61.4875 30.76875Q61.925 30.128124 62.284374 29.628124L64.03438 27.175L66.12813 27.175L62.55 32.065624L66.40938 37.55L64.25313 37.55L62.1125 34.33125L61.55 33.45625L58.83125 37.55L56.690624 37.55ZM66.87813 25.253124L66.87813 23.2375L68.64375 23.2375L68.64375 25.253124L66.87813 25.253124ZM66.87813 37.55L66.87813 27.175L68.64375 27.175L68.64375 37.55L66.87813 37.55ZM70.8625 37.55L70.8625 27.175L72.45625 27.175L72.45625 28.659374Q73.59688 26.940624 75.75313 26.940624Q76.69063 26.940624 77.47188 27.284374Q78.26875 27.6125 78.65938 28.159374Q79.05 28.70625 79.20625 29.45625Q79.3 29.95625 79.3 31.175L79.3 37.55L77.53438 37.55L77.53438 31.2375Q77.53438 30.159374 77.33125 29.628124Q77.12813 29.096874 76.59688 28.784374Q76.08125 28.471874 75.37813 28.471874Q74.25313 28.471874 73.44063 29.190624Q72.62813 29.89375 72.62813 31.878124L72.62813 37.55L70.8625 37.55ZM80.55 38.409374L82.25313 38.659374Q82.3625 39.45625 82.84688 39.815624Q83.50313 40.3 84.64375 40.3Q85.8625 40.3 86.51875 39.815624Q87.19063 39.33125 87.425 38.45625Q87.56563 37.909374 87.55 36.190624Q86.39375 37.55 84.675 37.55Q82.53438 37.55 81.3625 36.003124Q80.19063 34.45625 80.19063 32.3Q80.19063 30.815624 80.72188 29.565624Q81.26875 28.315624 82.28438 27.628124Q83.31563 26.940624 84.69063 26.940624Q86.51875 26.940624 87.72188 28.425L87.72188 27.175L89.33125 27.175L89.33125 36.14375Q89.33125 38.565624 88.83125 39.565624Q88.34688 40.58125 87.26875 41.159374Q86.20625 41.753124 84.64375 41.753124Q82.8 41.753124 81.64375 40.925Q80.50313 40.096874 80.55 38.409374ZM82.00313 32.175Q82.00313 34.221874 82.81563 35.159374Q83.62813 36.096874 84.84688 36.096874Q86.05 36.096874 86.8625 35.159374Q87.69063 34.221874 87.69063 32.2375Q87.69063 30.33125 86.84688 29.3625Q86.00313 28.39375 84.81563 28.39375Q83.64375 28.39375 82.81563 29.346874Q82.00313 30.3 82.00313 32.175ZM101.70625 35.971874L101.95625 37.534374Q101.22188 37.690624 100.62813 37.690624Q99.675 37.690624 99.14375 37.39375Q98.62813 37.08125 98.40938 36.596874Q98.19063 36.096874 98.19063 34.51875L98.19063 28.55L96.90938 28.55L96.90938 27.175L98.19063 27.175L98.19063 24.6125L99.94063 23.55L99.94063 27.175L101.70625 27.175L101.70625 28.55L99.94063 28.55L99.94063 34.6125Q99.94063 35.3625 100.03438 35.58125Q100.12813 35.784374 100.33125 35.925Q100.55 36.05 100.94063 36.05Q101.22188 36.05 101.70625 35.971874ZM103.87813 25.253124L103.87813 23.2375L105.64375 23.2375L105.64375 25.253124L103.87813 25.253124ZM103.87813 37.55L103.87813 27.175L105.64375 27.175L105.64375 37.55L103.87813 37.55ZM107.8625 37.55L107.8625 27.175L109.44063 27.175L109.44063 28.628124Q109.925 27.878124 110.7375 27.409374Q111.55 26.940624 112.58125 26.940624Q113.7375 26.940624 114.47188 27.425Q115.20625 27.89375 115.51875 28.753124Q116.75313 26.940624 118.72188 26.940624Q120.26875 26.940624 121.09688 27.8Q121.925 28.659374 121.925 30.425L121.925 37.55L120.175 37.55L120.175 31.01875Q120.175 29.95625 120.00313 29.503124Q119.83125 29.034374 119.37813 28.753124Q118.94063 28.471874 118.33125 28.471874Q117.2375 28.471874 116.50313 29.20625Q115.78438 29.925 115.78438 31.51875L115.78438 37.55L114.03438 37.55L114.03438 30.815624Q114.03438 29.64375 113.59688 29.065624Q113.175 28.471874 112.19063 28.471874Q111.45625 28.471874 110.81563 28.8625Q110.19063 29.253124 109.90938 30.003124Q109.62813 30.753124 109.62813 32.175L109.62813 37.55L107.8625 37.55ZM130.97188 34.20625L132.78438 34.440624Q132.3625 36.01875 131.19063 36.909374Q130.03438 37.784374 128.22188 37.784374Q125.95625 37.784374 124.6125 36.39375Q123.28438 34.9875 123.28438 32.45625Q123.28438 29.83125 124.62813 28.39375Q125.97188 26.940624 128.12813 26.940624Q130.20625 26.940624 131.51875 28.3625Q132.84688 29.76875 132.84688 32.346874Q132.84688 32.503124 132.83125 32.815624L125.09688 32.815624Q125.19063 34.51875 126.06563 35.425Q126.94063 36.33125 128.2375 36.33125Q129.20625 36.33125 129.87813 35.83125Q130.56563 35.315624 130.97188 34.20625ZM125.19063 31.3625L130.9875 31.3625Q130.87813 30.065624 130.33125 29.409374Q129.4875 28.39375 128.14375 28.39375Q126.94063 28.39375 126.1125 29.20625Q125.28438 30.003124 125.19063 31.3625ZM143.75313 37.55L139.8 27.175L141.65938 27.175L143.89375 33.39375Q144.25313 34.39375 144.55 35.471874Q144.78438 34.659374 145.20625 33.503124L147.50313 27.175L149.31563 27.175L145.39375 37.55L143.75313 37.55ZM149.15938 34.45625L150.90938 34.175Q151.05 35.221874 151.72188 35.784374Q152.39375 36.33125 153.59688 36.33125Q154.8 36.33125 155.37813 35.846874Q155.97188 35.346874 155.97188 34.690624Q155.97188 34.096874 155.45625 33.753124Q155.09688 33.51875 153.65938 33.159374Q151.72188 32.659374 150.97188 32.315624Q150.2375 31.95625 149.84688 31.33125Q149.45625 30.690624 149.45625 29.925Q149.45625 29.2375 149.76875 28.64375Q150.09688 28.05 150.64375 27.659374Q151.05 27.3625 151.75313 27.159374Q152.47188 26.940624 153.28438 26.940624Q154.50313 26.940624 155.425 27.3Q156.34688 27.64375 156.78438 28.253124Q157.22188 28.846874 157.39375 29.846874L155.675 30.08125Q155.55 29.284374 154.9875 28.846874Q154.425 28.39375 153.40938 28.39375Q152.19063 28.39375 151.675 28.8Q151.15938 29.190624 151.15938 29.721874Q151.15938 30.065624 151.37813 30.346874Q151.58125 30.628124 152.05 30.815624Q152.31563 30.909374 153.59688 31.253124Q155.47188 31.753124 156.20625 32.08125Q156.94063 32.39375 157.3625 33.003124Q157.78438 33.596874 157.78438 34.503124Q157.78438 35.378124 157.26875 36.159374Q156.75313 36.940624 155.78438 37.3625Q154.81563 37.784374 153.59688 37.784374Q151.58125 37.784374 150.51875 36.940624Q149.45625 36.096874 149.15938 34.45625ZM165.87813 25.253124L165.87813 23.2375L167.64375 23.2375L167.64375 25.253124L165.87813 25.253124ZM165.87813 37.55L165.87813 27.175L167.64375 27.175L167.64375 37.55L165.87813 37.55ZM173.70625 35.971874L173.95625 37.534374Q173.22188 37.690624 172.62813 37.690624Q171.675 37.690624 171.14375 37.39375Q170.62813 37.08125 170.40938 36.596874Q170.19063 36.096874 170.19063 34.51875L170.19063 28.55L168.90938 28.55L168.90938 27.175L170.19063 27.175L170.19063 24.6125L171.94063 23.55L171.94063 27.175L173.70625 27.175L173.70625 28.55L171.94063 28.55L171.94063 34.6125Q171.94063 35.3625 172.03438 35.58125Q172.12813 35.784374 172.33125 35.925Q172.55 36.05 172.94063 36.05Q173.22188 36.05 173.70625 35.971874ZM182.97188 34.20625L184.78438 34.440624Q184.3625 36.01875 183.19063 36.909374Q182.03438 37.784374 180.22188 37.784374Q177.95625 37.784374 176.6125 36.39375Q175.28438 34.9875 175.28438 32.45625Q175.28438 29.83125 176.62813 28.39375Q177.97188 26.940624 180.12813 26.940624Q182.20625 26.940624 183.51875 28.3625Q184.84688 29.76875 184.84688 32.346874Q184.84688 32.503124 184.83125 32.815624L177.09688 32.815624Q177.19063 34.51875 178.06563 35.425Q178.94063 36.33125 180.2375 36.33125Q181.20625 36.33125 181.87813 35.83125Q182.56563 35.315624 182.97188 34.20625ZM177.19063 31.3625L182.9875 31.3625Q182.87813 30.065624 182.33125 29.409374Q181.4875 28.39375 180.14375 28.39375Q178.94063 28.39375 178.1125 29.20625Q177.28438 30.003124 177.19063 31.3625ZM186.8625 37.55L186.8625 27.175L188.44063 27.175L188.44063 28.628124Q188.925 27.878124 189.7375 27.409374Q190.55 26.940624 191.58125 26.940624Q192.7375 26.940624 193.47188 27.425Q194.20625 27.89375 194.51875 28.753124Q195.75313 26.940624 197.72188 26.940624Q199.26875 26.940624 200.09688 27.8Q200.925 28.659374 200.925 30.425L200.925 37.55L199.175 37.55L199.175 31.01875Q199.175 29.95625 199.00313 29.503124Q198.83125 29.034374 198.37813 28.753124Q197.94063 28.471874 197.33125 28.471874Q196.2375 28.471874 195.50313 29.20625Q194.78438 29.925 194.78438 31.51875L194.78438 37.55L193.03438 37.55L193.03438 30.815624Q193.03438 29.64375 192.59688 29.065624Q192.175 28.471874 191.19063 28.471874Q190.45625 28.471874 189.81563 28.8625Q189.19063 29.253124 188.90938 30.003124Q188.62813 30.753124 188.62813 32.175L188.62813 37.55L186.8625 37.55ZM202.15938 34.45625L203.90938 34.175Q204.05 35.221874 204.72188 35.784374Q205.39375 36.33125 206.59688 36.33125Q207.8 36.33125 208.37813 35.846874Q208.97188 35.346874 208.97188 34.690624Q208.97188 34.096874 208.45625 33.753124Q208.09688 33.51875 206.65938 33.159374Q204.72188 32.659374 203.97188 32.315624Q203.2375 31.95625 202.84688 31.33125Q202.45625 30.690624 202.45625 29.925Q202.45625 29.2375 202.76875 28.64375Q203.09688 28.05 203.64375 27.659374Q204.05 27.3625 204.75313 27.159374Q205.47188 26.940624 206.28438 26.940624Q207.50313 26.940624 208.425 27.3Q209.34688 27.64375 209.78438 28.253124Q210.22188 28.846874 210.39375 29.846874L208.675 30.08125Q208.55 29.284374 207.9875 28.846874Q207.425 28.39375 206.40938 28.39375Q205.19063 28.39375 204.675 28.8Q204.15938 29.190624 204.15938 29.721874Q204.15938 30.065624 204.37813 30.346874Q204.58125 30.628124 205.05 30.815624Q205.31563 30.909374 206.59688 31.253124Q208.47188 31.753124 209.20625 32.08125Q209.94063 32.39375 210.3625 33.003124Q210.78438 33.596874 210.78438 34.503124Q210.78438 35.378124 210.26875 36.159374Q209.75313 36.940624 208.78438 37.3625Q207.81563 37.784374 206.59688 37.784374Q204.58125 37.784374 203.51875 36.940624Q202.45625 36.096874 202.15938 34.45625ZM216.7375 37.55L216.7375 24.925L212.01875 24.925L212.01875 23.2375L223.3625 23.2375L223.3625 24.925L218.62813 24.925L218.62813 37.55L216.7375 37.55ZM224.8625 37.55L224.8625 23.2375L226.62813 23.2375L226.62813 28.3625Q227.8625 26.940624 229.7375 26.940624Q230.87813 26.940624 231.72188 27.39375Q232.58125 27.846874 232.94063 28.659374Q233.31563 29.45625 233.31563 30.971874L233.31563 37.55L231.56563 37.55L231.56563 30.971874Q231.56563 29.659374 230.9875 29.065624Q230.40938 28.45625 229.37813 28.45625Q228.59688 28.45625 227.89375 28.8625Q227.20625 29.26875 226.90938 29.971874Q226.62813 30.659374 226.62813 31.878124L226.62813 37.55L224.8625 37.55ZM234.84688 37.55L234.84688 27.175L236.425 27.175L236.425 28.753124Q237.03438 27.64375 237.55 27.3Q238.06563 26.940624 238.675 26.940624Q239.56563 26.940624 240.4875 27.503124L239.87813 29.14375Q239.2375 28.753124 238.59688 28.753124Q238.01875 28.753124 237.55 29.1125Q237.09688 29.45625 236.89375 30.065624Q236.6125 31.003124 236.6125 32.1125L236.6125 37.55L234.84688 37.55ZM248.97188 34.20625L250.78438 34.440624Q250.3625 36.01875 249.19063 36.909374Q248.03438 37.784374 246.22188 37.784374Q243.95625 37.784374 242.6125 36.39375Q241.28438 34.9875 241.28438 32.45625Q241.28438 29.83125 242.62813 28.39375Q243.97188 26.940624 246.12813 26.940624Q248.20625 26.940624 249.51875 28.3625Q250.84688 29.76875 250.84688 32.346874Q250.84688 32.503124 250.83125 32.815624L243.09688 32.815624Q243.19063 34.51875 244.06563 35.425Q244.94063 36.33125 246.2375 36.33125Q247.20625 36.33125 247.87813 35.83125Q248.56563 35.315624 248.97188 34.20625ZM243.19063 31.3625L248.9875 31.3625Q248.87813 30.065624 248.33125 29.409374Q247.4875 28.39375 246.14375 28.39375Q244.94063 28.39375 244.1125 29.20625Q243.28438 30.003124 243.19063 31.3625ZM252.15938 34.45625L253.90938 34.175Q254.05 35.221874 254.72188 35.784374Q255.39375 36.33125 256.59686 36.33125Q257.8 36.33125 258.3781 35.846874Q258.97186 35.346874 258.97186 34.690624Q258.97186 34.096874 258.45624 33.753124Q258.09686 33.51875 256.65936 33.159374Q254.72188 32.659374 253.97188 32.315624Q253.2375 31.95625 252.84688 31.33125Q252.45625 30.690624 252.45625 29.925Q252.45625 29.2375 252.76875 28.64375Q253.09688 28.05 253.64375 27.659374Q254.05 27.3625 254.75313 27.159374Q255.47188 26.940624 256.28436 26.940624Q257.5031 26.940624 258.425 27.3Q259.34686 27.64375 259.78436 28.253124Q260.22186 28.846874 260.39374 29.846874L258.675 30.08125Q258.55 29.284374 257.9875 28.846874Q257.425 28.39375 256.40936 28.39375Q255.19063 28.39375 254.675 28.8Q254.15938 29.190624 254.15938 29.721874Q254.15938 30.065624 254.37813 30.346874Q254.58125 30.628124 255.05 30.815624Q255.31563 30.909374 256.59686 31.253124Q258.47186 31.753124 259.20624 32.08125Q259.9406 32.39375 260.3625 33.003124Q260.78436 33.596874 260.78436 34.503124Q260.78436 35.378124 260.26874 36.159374Q259.7531 36.940624 258.78436 37.3625Q257.8156 37.784374 256.59686 37.784374Q254.58125 37.784374 253.51875 36.940624Q252.45625 36.096874 252.15938 34.45625ZM262.8625 37.55L262.8625 23.2375L264.6281 23.2375L264.6281 28.3625Q265.8625 26.940624 267.7375 26.940624Q268.8781 26.940624 269.72186 27.39375Q270.58124 27.846874 270.9406 28.659374Q271.3156 29.45625 271.3156 30.971874L271.3156 37.55L269.5656 37.55L269.5656 30.971874Q269.5656 29.659374 268.9875 29.065624Q268.40936 28.45625 267.3781 28.45625Q266.59686 28.45625 265.89374 28.8625Q265.20624 29.26875 264.90936 29.971874Q264.6281 30.659374 264.6281 31.878124L264.6281 37.55L262.8625 37.55ZM272.22186 32.3625Q272.22186 29.4875 273.8156 28.096874Q275.15936 26.940624 277.08124 26.940624Q279.22186 26.940624 280.5656 28.346874Q281.925 29.753124 281.925 32.221874Q281.925 34.221874 281.33124 35.378124Q280.7375 36.51875 279.58124 37.159374Q278.4406 37.784374 277.08124 37.784374Q274.89374 37.784374 273.55 36.39375Q272.22186 34.9875 272.22186 32.3625ZM274.01874 32.3625Q274.01874 34.3625 274.8781 35.346874Q275.7531 36.33125 277.08124 36.33125Q278.39374 36.33125 279.2531 35.346874Q280.1281 34.346874 280.1281 32.3Q280.1281 30.378124 279.2531 29.39375Q278.3781 28.39375 277.08124 28.39375Q275.7531 28.39375 274.8781 29.39375Q274.01874 30.378124 274.01874 32.3625ZM283.83124 37.55L283.83124 23.2375L285.58124 23.2375L285.58124 37.55L283.83124 37.55ZM294.59686 37.55L294.59686 36.2375Q293.6125 37.784374 291.6906 37.784374Q290.45624 37.784374 289.40936 37.096874Q288.3781 36.409374 287.8 35.190624Q287.2375 33.971874 287.2375 32.378124Q287.2375 30.815624 287.7531 29.55Q288.26874 28.284374 289.3 27.6125Q290.34686 26.940624 291.6125 26.940624Q292.55 26.940624 293.28436 27.346874Q294.01874 27.7375 294.4875 28.3625L294.4875 23.2375L296.22186 23.2375L296.22186 37.55L294.59686 37.55ZM289.03436 32.378124Q289.03436 34.3625 289.8781 35.346874Q290.72186 36.33125 291.8625 36.33125Q293.01874 36.33125 293.8156 35.39375Q294.6281 34.45625 294.6281 32.51875Q294.6281 30.39375 293.8 29.39375Q292.9875 28.39375 291.78436 28.39375Q290.6125 28.39375 289.8156 29.3625Q289.03436 30.315624 289.03436 32.378124Z" fill-rule="nonzero"/></svg>